M48
; DRILL file {KiCad (6.0.4)} date Thu 21 Apr 2022 09:54:40 PM CEST
; FORMAT={-:-/ absolute / inch / decimal}
; #@! TF.CreationDate,2022-04-21T21:54:40+02:00
; #@! TF.GenerationSoftware,Kicad,Pcbnew,(6.0.4)
; #@! TF.FileFunction,Plated,1,2,PTH
FMAT,2
INCH
; #@! TA.AperFunction,Plated,PTH,ViaDrill
T1C0.0157
; #@! TA.AperFunction,Plated,PTH,ComponentDrill
T2C0.0320
; #@! TA.AperFunction,Plated,PTH,ComponentDrill
T3C0.0394
; #@! TA.AperFunction,Plated,PTH,ComponentDrill
T4C0.0500
; #@! TA.AperFunction,Plated,PTH,ComponentDrill
T5C0.0512
%
G90
G05
T1
X4.8Y-1.6257
X4.8386Y-1.6693
X4.95Y-1.5657
X5.17Y-2.7457
X5.37Y-2.8757
T2
X4.9879Y-1.6702
X4.9879Y-1.7702
X4.9879Y-1.8702
X4.9879Y-1.9702
X4.9879Y-2.0702
X4.9879Y-2.1702
X4.9879Y-2.2702
X4.9879Y-2.3702
X4.9879Y-2.4702
X4.9879Y-2.5702
X4.9879Y-2.6702
X4.9879Y-2.7702
X5.5871Y-1.6702
X5.5871Y-1.7702
X5.5871Y-1.8702
X5.5871Y-1.9702
X5.5871Y-2.0702
X5.5871Y-2.1702
X5.5871Y-2.2702
X5.5871Y-2.3702
X5.5871Y-2.4702
X5.5871Y-2.5702
X5.5871Y-2.6702
X5.5871Y-2.7702
T4
X1.5354Y-1.8335
X1.5354Y-2.5028
X1.5354Y-3.1722
X1.7323Y-1.9161
X1.7323Y-2.5854
X1.7323Y-3.2549
X1.9291Y-1.8335
X1.9291Y-2.5028
X1.9291Y-3.1722
X2.2441Y-1.352
X2.2441Y-2.0213
X2.2441Y-2.6907
X2.4409Y-1.4346
X2.4409Y-2.1039
X2.4409Y-2.7734
X2.6378Y-1.352
X2.6378Y-2.0213
X2.6378Y-2.6907
X2.9528Y-1.0839
X2.9528Y-1.7528
X2.9528Y-2.422
X3.1496Y-1.1665
X3.1496Y-1.8354
X3.1496Y-2.5047
X3.3465Y-1.0839
X3.3465Y-1.7528
X3.3465Y-2.422
X3.6614Y-1.3047
X3.6614Y-1.974
X3.6614Y-2.6435
X3.8583Y-1.3874
X3.8583Y-2.0567
X3.8583Y-2.7262
X4.0551Y-1.3047
X4.0551Y-1.974
X4.0551Y-2.6435
X4.0982Y-3.1026
X4.3097Y-3.0737
X4.3701Y-1.3984
X4.3701Y-2.0677
X4.3701Y-2.737
X4.4785Y-3.2045
X4.5669Y-1.4811
X4.5669Y-2.1504
X4.5669Y-2.8197
X4.7638Y-1.3984
X4.7638Y-2.0677
X4.7638Y-2.737
X4.8846Y-3.3736
X5.0965Y-3.4004
X5.2256Y-3.5704
T5
X4.9988Y-2.9287
X4.9988Y-3.1846
T3
G00X5.1366Y-3.0307
M15
G01X5.1169Y-3.0307
M16
G05
G00X5.1366Y-3.1272
M15
G01X5.1169Y-3.1272
M16
G05
G00X5.1957Y-2.9618
M15
G01X5.176Y-2.9618
M16
G05
G00X5.1957Y-3.1961
M15
G01X5.176Y-3.1961
M16
G05
G00X5.3531Y-2.9618
M15
G01X5.3335Y-2.9618
M16
G05
G00X5.3531Y-3.1961
M15
G01X5.3335Y-3.1961
M16
G05
G00X5.4713Y-2.9618
M15
G01X5.4516Y-2.9618
M16
G05
G00X5.4713Y-3.1961
M15
G01X5.4516Y-3.1961
M16
G05
T0
M30
