G04 #@! TF.GenerationSoftware,KiCad,Pcbnew,(6.0.4)*
G04 #@! TF.CreationDate,2022-04-21T21:54:51+02:00*
G04 #@! TF.ProjectId,ferris-sweep-compact,66657272-6973-42d7-9377-6565702d636f,0.1*
G04 #@! TF.SameCoordinates,Original*
G04 #@! TF.FileFunction,Legend,Bot*
G04 #@! TF.FilePolarity,Positive*
%FSLAX46Y46*%
G04 Gerber Fmt 4.6, Leading zero omitted, Abs format (unit mm)*
G04 Created by KiCad (PCBNEW (6.0.4)) date 2022-04-21 21:54:51*
%MOMM*%
%LPD*%
G01*
G04 APERTURE LIST*
%ADD10C,0.300000*%
%ADD11C,0.125000*%
%ADD12C,0.150000*%
G04 APERTURE END LIST*
D10*
X134393714Y-48086571D02*
X134465142Y-48015142D01*
X134536571Y-47800857D01*
X134536571Y-47658000D01*
X134465142Y-47443714D01*
X134322285Y-47300857D01*
X134179428Y-47229428D01*
X133893714Y-47158000D01*
X133679428Y-47158000D01*
X133393714Y-47229428D01*
X133250857Y-47300857D01*
X133108000Y-47443714D01*
X133036571Y-47658000D01*
X133036571Y-47800857D01*
X133108000Y-48015142D01*
X133179428Y-48086571D01*
X134536571Y-48943714D02*
X134465142Y-48800857D01*
X134393714Y-48729428D01*
X134250857Y-48658000D01*
X133822285Y-48658000D01*
X133679428Y-48729428D01*
X133608000Y-48800857D01*
X133536571Y-48943714D01*
X133536571Y-49158000D01*
X133608000Y-49300857D01*
X133679428Y-49372285D01*
X133822285Y-49443714D01*
X134250857Y-49443714D01*
X134393714Y-49372285D01*
X134465142Y-49300857D01*
X134536571Y-49158000D01*
X134536571Y-48943714D01*
X133536571Y-50086571D02*
X134536571Y-50086571D01*
X133679428Y-50086571D02*
X133608000Y-50158000D01*
X133536571Y-50300857D01*
X133536571Y-50515142D01*
X133608000Y-50658000D01*
X133750857Y-50729428D01*
X134536571Y-50729428D01*
X133536571Y-51229428D02*
X133536571Y-51800857D01*
X133036571Y-51443714D02*
X134322285Y-51443714D01*
X134465142Y-51515142D01*
X134536571Y-51658000D01*
X134536571Y-51800857D01*
X134536571Y-52300857D02*
X133536571Y-52300857D01*
X133822285Y-52300857D02*
X133679428Y-52372285D01*
X133608000Y-52443714D01*
X133536571Y-52586571D01*
X133536571Y-52729428D01*
X134536571Y-53443714D02*
X134465142Y-53300857D01*
X134393714Y-53229428D01*
X134250857Y-53158000D01*
X133822285Y-53158000D01*
X133679428Y-53229428D01*
X133608000Y-53300857D01*
X133536571Y-53443714D01*
X133536571Y-53658000D01*
X133608000Y-53800857D01*
X133679428Y-53872285D01*
X133822285Y-53943714D01*
X134250857Y-53943714D01*
X134393714Y-53872285D01*
X134465142Y-53800857D01*
X134536571Y-53658000D01*
X134536571Y-53443714D01*
X134536571Y-54800857D02*
X134465142Y-54658000D01*
X134322285Y-54586571D01*
X133036571Y-54586571D01*
X134536571Y-55586571D02*
X134465142Y-55443714D01*
X134322285Y-55372285D01*
X133036571Y-55372285D01*
X134465142Y-56729428D02*
X134536571Y-56586571D01*
X134536571Y-56300857D01*
X134465142Y-56158000D01*
X134322285Y-56086571D01*
X133750857Y-56086571D01*
X133608000Y-56158000D01*
X133536571Y-56300857D01*
X133536571Y-56586571D01*
X133608000Y-56729428D01*
X133750857Y-56800857D01*
X133893714Y-56800857D01*
X134036571Y-56086571D01*
X134536571Y-57443714D02*
X133536571Y-57443714D01*
X133822285Y-57443714D02*
X133679428Y-57515142D01*
X133608000Y-57586571D01*
X133536571Y-57729428D01*
X133536571Y-57872285D01*
X133750857Y-60015142D02*
X133750857Y-59515142D01*
X134536571Y-59515142D02*
X133036571Y-59515142D01*
X133036571Y-60229428D01*
X134536571Y-61443714D02*
X133750857Y-61443714D01*
X133608000Y-61372285D01*
X133536571Y-61229428D01*
X133536571Y-60943714D01*
X133608000Y-60800857D01*
X134465142Y-61443714D02*
X134536571Y-61300857D01*
X134536571Y-60943714D01*
X134465142Y-60800857D01*
X134322285Y-60729428D01*
X134179428Y-60729428D01*
X134036571Y-60800857D01*
X133965142Y-60943714D01*
X133965142Y-61300857D01*
X133893714Y-61443714D01*
X134465142Y-62800857D02*
X134536571Y-62658000D01*
X134536571Y-62372285D01*
X134465142Y-62229428D01*
X134393714Y-62158000D01*
X134250857Y-62086571D01*
X133822285Y-62086571D01*
X133679428Y-62158000D01*
X133608000Y-62229428D01*
X133536571Y-62372285D01*
X133536571Y-62658000D01*
X133608000Y-62800857D01*
X134465142Y-64015142D02*
X134536571Y-63872285D01*
X134536571Y-63586571D01*
X134465142Y-63443714D01*
X134322285Y-63372285D01*
X133750857Y-63372285D01*
X133608000Y-63443714D01*
X133536571Y-63586571D01*
X133536571Y-63872285D01*
X133608000Y-64015142D01*
X133750857Y-64086571D01*
X133893714Y-64086571D01*
X134036571Y-63372285D01*
X133036571Y-65872285D02*
X134250857Y-65872285D01*
X134393714Y-65943714D01*
X134465142Y-66015142D01*
X134536571Y-66158000D01*
X134536571Y-66443714D01*
X134465142Y-66586571D01*
X134393714Y-66658000D01*
X134250857Y-66729428D01*
X133036571Y-66729428D01*
X133536571Y-67443714D02*
X135036571Y-67443714D01*
X133608000Y-67443714D02*
X133536571Y-67586571D01*
X133536571Y-67872285D01*
X133608000Y-68015142D01*
X133679428Y-68086571D01*
X133822285Y-68158000D01*
X134250857Y-68158000D01*
X134393714Y-68086571D01*
X134465142Y-68015142D01*
X134536571Y-67872285D01*
X134536571Y-67586571D01*
X134465142Y-67443714D01*
X83242571Y-54288000D02*
X83387714Y-54215428D01*
X83605428Y-54215428D01*
X83823142Y-54288000D01*
X83968285Y-54433142D01*
X84040857Y-54578285D01*
X84113428Y-54868571D01*
X84113428Y-55086285D01*
X84040857Y-55376571D01*
X83968285Y-55521714D01*
X83823142Y-55666857D01*
X83605428Y-55739428D01*
X83460285Y-55739428D01*
X83242571Y-55666857D01*
X83170000Y-55594285D01*
X83170000Y-55086285D01*
X83460285Y-55086285D01*
X82299142Y-54215428D02*
X82299142Y-54578285D01*
X82662000Y-54433142D02*
X82299142Y-54578285D01*
X81936285Y-54433142D01*
X82516857Y-54868571D02*
X82299142Y-54578285D01*
X82081428Y-54868571D01*
X81138000Y-54215428D02*
X81138000Y-54578285D01*
X81500857Y-54433142D02*
X81138000Y-54578285D01*
X80775142Y-54433142D01*
X81355714Y-54868571D02*
X81138000Y-54578285D01*
X80920285Y-54868571D01*
X79976857Y-54215428D02*
X79976857Y-54578285D01*
X80339714Y-54433142D02*
X79976857Y-54578285D01*
X79614000Y-54433142D01*
X80194571Y-54868571D02*
X79976857Y-54578285D01*
X79759142Y-54868571D01*
D11*
X139094166Y-50964785D02*
X138927500Y-51714785D01*
X138760833Y-50964785D01*
X138308452Y-51643357D02*
X138332261Y-51679071D01*
X138403690Y-51714785D01*
X138451309Y-51714785D01*
X138522738Y-51679071D01*
X138570357Y-51607642D01*
X138594166Y-51536214D01*
X138617976Y-51393357D01*
X138617976Y-51286214D01*
X138594166Y-51143357D01*
X138570357Y-51071928D01*
X138522738Y-51000500D01*
X138451309Y-50964785D01*
X138403690Y-50964785D01*
X138332261Y-51000500D01*
X138308452Y-51036214D01*
X137808452Y-51643357D02*
X137832261Y-51679071D01*
X137903690Y-51714785D01*
X137951309Y-51714785D01*
X138022738Y-51679071D01*
X138070357Y-51607642D01*
X138094166Y-51536214D01*
X138117976Y-51393357D01*
X138117976Y-51286214D01*
X138094166Y-51143357D01*
X138070357Y-51071928D01*
X138022738Y-51000500D01*
X137951309Y-50964785D01*
X137903690Y-50964785D01*
X137832261Y-51000500D01*
X137808452Y-51036214D01*
X138764809Y-49174785D02*
X138931476Y-48817642D01*
X139050523Y-49174785D02*
X139050523Y-48424785D01*
X138860047Y-48424785D01*
X138812428Y-48460500D01*
X138788619Y-48496214D01*
X138764809Y-48567642D01*
X138764809Y-48674785D01*
X138788619Y-48746214D01*
X138812428Y-48781928D01*
X138860047Y-48817642D01*
X139050523Y-48817642D01*
X138574333Y-49139071D02*
X138502904Y-49174785D01*
X138383857Y-49174785D01*
X138336238Y-49139071D01*
X138312428Y-49103357D01*
X138288619Y-49031928D01*
X138288619Y-48960500D01*
X138312428Y-48889071D01*
X138336238Y-48853357D01*
X138383857Y-48817642D01*
X138479095Y-48781928D01*
X138526714Y-48746214D01*
X138550523Y-48710500D01*
X138574333Y-48639071D01*
X138574333Y-48567642D01*
X138550523Y-48496214D01*
X138526714Y-48460500D01*
X138479095Y-48424785D01*
X138360047Y-48424785D01*
X138288619Y-48460500D01*
X138145761Y-48424785D02*
X137860047Y-48424785D01*
X138002904Y-49174785D02*
X138002904Y-48424785D01*
X138808452Y-45857000D02*
X138856071Y-45821285D01*
X138927500Y-45821285D01*
X138998928Y-45857000D01*
X139046547Y-45928428D01*
X139070357Y-45999857D01*
X139094166Y-46142714D01*
X139094166Y-46249857D01*
X139070357Y-46392714D01*
X139046547Y-46464142D01*
X138998928Y-46535571D01*
X138927500Y-46571285D01*
X138879880Y-46571285D01*
X138808452Y-46535571D01*
X138784642Y-46499857D01*
X138784642Y-46249857D01*
X138879880Y-46249857D01*
X138570357Y-46571285D02*
X138570357Y-45821285D01*
X138284642Y-46571285D01*
X138284642Y-45821285D01*
X138046547Y-46571285D02*
X138046547Y-45821285D01*
X137927500Y-45821285D01*
X137856071Y-45857000D01*
X137808452Y-45928428D01*
X137784642Y-45999857D01*
X137760833Y-46142714D01*
X137760833Y-46249857D01*
X137784642Y-46392714D01*
X137808452Y-46464142D01*
X137856071Y-46535571D01*
X137927500Y-46571285D01*
X138046547Y-46571285D01*
X138836238Y-44094785D02*
X139002904Y-43737642D01*
X139121952Y-44094785D02*
X139121952Y-43344785D01*
X138931476Y-43344785D01*
X138883857Y-43380500D01*
X138860047Y-43416214D01*
X138836238Y-43487642D01*
X138836238Y-43594785D01*
X138860047Y-43666214D01*
X138883857Y-43701928D01*
X138931476Y-43737642D01*
X139121952Y-43737642D01*
X138645761Y-43880500D02*
X138407666Y-43880500D01*
X138693380Y-44094785D02*
X138526714Y-43344785D01*
X138360047Y-44094785D01*
X138241000Y-43344785D02*
X138121952Y-44094785D01*
X138026714Y-43559071D01*
X137931476Y-44094785D01*
X137812428Y-43344785D01*
D12*
X133521505Y-40715428D02*
X132759601Y-40715428D01*
D11*
X123572428Y-44094785D02*
X123810523Y-44094785D01*
X123810523Y-43344785D01*
X123405761Y-43701928D02*
X123239095Y-43701928D01*
X123167666Y-44094785D02*
X123405761Y-44094785D01*
X123405761Y-43344785D01*
X123167666Y-43344785D01*
X122953380Y-44094785D02*
X122953380Y-43344785D01*
X122834333Y-43344785D01*
X122762904Y-43380500D01*
X122715285Y-43451928D01*
X122691476Y-43523357D01*
X122667666Y-43666214D01*
X122667666Y-43773357D01*
X122691476Y-43916214D01*
X122715285Y-43987642D01*
X122762904Y-44059071D01*
X122834333Y-44094785D01*
X122953380Y-44094785D01*
X123850000Y-46739285D02*
X123850000Y-45989285D01*
X123730952Y-45989285D01*
X123659523Y-46025000D01*
X123611904Y-46096428D01*
X123588095Y-46167857D01*
X123564285Y-46310714D01*
X123564285Y-46417857D01*
X123588095Y-46560714D01*
X123611904Y-46632142D01*
X123659523Y-46703571D01*
X123730952Y-46739285D01*
X123850000Y-46739285D01*
X123373809Y-46525000D02*
X123135714Y-46525000D01*
X123421428Y-46739285D02*
X123254761Y-45989285D01*
X123088095Y-46739285D01*
X122992857Y-45989285D02*
X122707142Y-45989285D01*
X122850000Y-46739285D02*
X122850000Y-45989285D01*
X122564285Y-46525000D02*
X122326190Y-46525000D01*
X122611904Y-46739285D02*
X122445238Y-45989285D01*
X122278571Y-46739285D01*
X138847619Y-61767857D02*
X138871428Y-61803571D01*
X138942857Y-61839285D01*
X138990476Y-61839285D01*
X139061904Y-61803571D01*
X139109523Y-61732142D01*
X139133333Y-61660714D01*
X139157142Y-61517857D01*
X139157142Y-61410714D01*
X139133333Y-61267857D01*
X139109523Y-61196428D01*
X139061904Y-61125000D01*
X138990476Y-61089285D01*
X138942857Y-61089285D01*
X138871428Y-61125000D01*
X138847619Y-61160714D01*
X138538095Y-61089285D02*
X138442857Y-61089285D01*
X138395238Y-61125000D01*
X138347619Y-61196428D01*
X138323809Y-61339285D01*
X138323809Y-61589285D01*
X138347619Y-61732142D01*
X138395238Y-61803571D01*
X138442857Y-61839285D01*
X138538095Y-61839285D01*
X138585714Y-61803571D01*
X138633333Y-61732142D01*
X138657142Y-61589285D01*
X138657142Y-61339285D01*
X138633333Y-61196428D01*
X138585714Y-61125000D01*
X138538095Y-61089285D01*
X137871428Y-61839285D02*
X138109523Y-61839285D01*
X138109523Y-61089285D01*
X137752380Y-61089285D02*
X137442857Y-61089285D01*
X137609523Y-61375000D01*
X137538095Y-61375000D01*
X137490476Y-61410714D01*
X137466666Y-61446428D01*
X137442857Y-61517857D01*
X137442857Y-61696428D01*
X137466666Y-61767857D01*
X137490476Y-61803571D01*
X137538095Y-61839285D01*
X137680952Y-61839285D01*
X137728571Y-61803571D01*
X137752380Y-61767857D01*
X123630952Y-59271285D02*
X123797619Y-58914142D01*
X123916666Y-59271285D02*
X123916666Y-58521285D01*
X123726190Y-58521285D01*
X123678571Y-58557000D01*
X123654761Y-58592714D01*
X123630952Y-58664142D01*
X123630952Y-58771285D01*
X123654761Y-58842714D01*
X123678571Y-58878428D01*
X123726190Y-58914142D01*
X123916666Y-58914142D01*
X123321428Y-58521285D02*
X123226190Y-58521285D01*
X123178571Y-58557000D01*
X123130952Y-58628428D01*
X123107142Y-58771285D01*
X123107142Y-59021285D01*
X123130952Y-59164142D01*
X123178571Y-59235571D01*
X123226190Y-59271285D01*
X123321428Y-59271285D01*
X123369047Y-59235571D01*
X123416666Y-59164142D01*
X123440476Y-59021285D01*
X123440476Y-58771285D01*
X123416666Y-58628428D01*
X123369047Y-58557000D01*
X123321428Y-58521285D01*
X122940476Y-58521285D02*
X122821428Y-59271285D01*
X122726190Y-58735571D01*
X122630952Y-59271285D01*
X122511904Y-58521285D01*
X122226190Y-58521285D02*
X122178571Y-58521285D01*
X122130952Y-58557000D01*
X122107142Y-58592714D01*
X122083333Y-58664142D01*
X122059523Y-58807000D01*
X122059523Y-58985571D01*
X122083333Y-59128428D01*
X122107142Y-59199857D01*
X122130952Y-59235571D01*
X122178571Y-59271285D01*
X122226190Y-59271285D01*
X122273809Y-59235571D01*
X122297619Y-59199857D01*
X122321428Y-59128428D01*
X122345238Y-58985571D01*
X122345238Y-58807000D01*
X122321428Y-58664142D01*
X122297619Y-58592714D01*
X122273809Y-58557000D01*
X122226190Y-58521285D01*
X138847619Y-59267857D02*
X138871428Y-59303571D01*
X138942857Y-59339285D01*
X138990476Y-59339285D01*
X139061904Y-59303571D01*
X139109523Y-59232142D01*
X139133333Y-59160714D01*
X139157142Y-59017857D01*
X139157142Y-58910714D01*
X139133333Y-58767857D01*
X139109523Y-58696428D01*
X139061904Y-58625000D01*
X138990476Y-58589285D01*
X138942857Y-58589285D01*
X138871428Y-58625000D01*
X138847619Y-58660714D01*
X138538095Y-58589285D02*
X138442857Y-58589285D01*
X138395238Y-58625000D01*
X138347619Y-58696428D01*
X138323809Y-58839285D01*
X138323809Y-59089285D01*
X138347619Y-59232142D01*
X138395238Y-59303571D01*
X138442857Y-59339285D01*
X138538095Y-59339285D01*
X138585714Y-59303571D01*
X138633333Y-59232142D01*
X138657142Y-59089285D01*
X138657142Y-58839285D01*
X138633333Y-58696428D01*
X138585714Y-58625000D01*
X138538095Y-58589285D01*
X137871428Y-59339285D02*
X138109523Y-59339285D01*
X138109523Y-58589285D01*
X137728571Y-58660714D02*
X137704761Y-58625000D01*
X137657142Y-58589285D01*
X137538095Y-58589285D01*
X137490476Y-58625000D01*
X137466666Y-58660714D01*
X137442857Y-58732142D01*
X137442857Y-58803571D01*
X137466666Y-58910714D01*
X137752380Y-59339285D01*
X137442857Y-59339285D01*
X123846238Y-56759071D02*
X123774809Y-56794785D01*
X123655761Y-56794785D01*
X123608142Y-56759071D01*
X123584333Y-56723357D01*
X123560523Y-56651928D01*
X123560523Y-56580500D01*
X123584333Y-56509071D01*
X123608142Y-56473357D01*
X123655761Y-56437642D01*
X123751000Y-56401928D01*
X123798619Y-56366214D01*
X123822428Y-56330500D01*
X123846238Y-56259071D01*
X123846238Y-56187642D01*
X123822428Y-56116214D01*
X123798619Y-56080500D01*
X123751000Y-56044785D01*
X123631952Y-56044785D01*
X123560523Y-56080500D01*
X123060523Y-56723357D02*
X123084333Y-56759071D01*
X123155761Y-56794785D01*
X123203380Y-56794785D01*
X123274809Y-56759071D01*
X123322428Y-56687642D01*
X123346238Y-56616214D01*
X123370047Y-56473357D01*
X123370047Y-56366214D01*
X123346238Y-56223357D01*
X123322428Y-56151928D01*
X123274809Y-56080500D01*
X123203380Y-56044785D01*
X123155761Y-56044785D01*
X123084333Y-56080500D01*
X123060523Y-56116214D01*
X122608142Y-56794785D02*
X122846238Y-56794785D01*
X122846238Y-56044785D01*
X138847619Y-56723357D02*
X138871428Y-56759071D01*
X138942857Y-56794785D01*
X138990476Y-56794785D01*
X139061904Y-56759071D01*
X139109523Y-56687642D01*
X139133333Y-56616214D01*
X139157142Y-56473357D01*
X139157142Y-56366214D01*
X139133333Y-56223357D01*
X139109523Y-56151928D01*
X139061904Y-56080500D01*
X138990476Y-56044785D01*
X138942857Y-56044785D01*
X138871428Y-56080500D01*
X138847619Y-56116214D01*
X138538095Y-56044785D02*
X138442857Y-56044785D01*
X138395238Y-56080500D01*
X138347619Y-56151928D01*
X138323809Y-56294785D01*
X138323809Y-56544785D01*
X138347619Y-56687642D01*
X138395238Y-56759071D01*
X138442857Y-56794785D01*
X138538095Y-56794785D01*
X138585714Y-56759071D01*
X138633333Y-56687642D01*
X138657142Y-56544785D01*
X138657142Y-56294785D01*
X138633333Y-56151928D01*
X138585714Y-56080500D01*
X138538095Y-56044785D01*
X137871428Y-56794785D02*
X138109523Y-56794785D01*
X138109523Y-56044785D01*
X137442857Y-56794785D02*
X137728571Y-56794785D01*
X137585714Y-56794785D02*
X137585714Y-56044785D01*
X137633333Y-56151928D01*
X137680952Y-56223357D01*
X137728571Y-56259071D01*
X123858142Y-54219071D02*
X123786714Y-54254785D01*
X123667666Y-54254785D01*
X123620047Y-54219071D01*
X123596238Y-54183357D01*
X123572428Y-54111928D01*
X123572428Y-54040500D01*
X123596238Y-53969071D01*
X123620047Y-53933357D01*
X123667666Y-53897642D01*
X123762904Y-53861928D01*
X123810523Y-53826214D01*
X123834333Y-53790500D01*
X123858142Y-53719071D01*
X123858142Y-53647642D01*
X123834333Y-53576214D01*
X123810523Y-53540500D01*
X123762904Y-53504785D01*
X123643857Y-53504785D01*
X123572428Y-53540500D01*
X123358142Y-54254785D02*
X123358142Y-53504785D01*
X123239095Y-53504785D01*
X123167666Y-53540500D01*
X123120047Y-53611928D01*
X123096238Y-53683357D01*
X123072428Y-53826214D01*
X123072428Y-53933357D01*
X123096238Y-54076214D01*
X123120047Y-54147642D01*
X123167666Y-54219071D01*
X123239095Y-54254785D01*
X123358142Y-54254785D01*
X122881952Y-54040500D02*
X122643857Y-54040500D01*
X122929571Y-54254785D02*
X122762904Y-53504785D01*
X122596238Y-54254785D01*
X138847619Y-54217857D02*
X138871428Y-54253571D01*
X138942857Y-54289285D01*
X138990476Y-54289285D01*
X139061904Y-54253571D01*
X139109523Y-54182142D01*
X139133333Y-54110714D01*
X139157142Y-53967857D01*
X139157142Y-53860714D01*
X139133333Y-53717857D01*
X139109523Y-53646428D01*
X139061904Y-53575000D01*
X138990476Y-53539285D01*
X138942857Y-53539285D01*
X138871428Y-53575000D01*
X138847619Y-53610714D01*
X138538095Y-53539285D02*
X138442857Y-53539285D01*
X138395238Y-53575000D01*
X138347619Y-53646428D01*
X138323809Y-53789285D01*
X138323809Y-54039285D01*
X138347619Y-54182142D01*
X138395238Y-54253571D01*
X138442857Y-54289285D01*
X138538095Y-54289285D01*
X138585714Y-54253571D01*
X138633333Y-54182142D01*
X138657142Y-54039285D01*
X138657142Y-53789285D01*
X138633333Y-53646428D01*
X138585714Y-53575000D01*
X138538095Y-53539285D01*
X137871428Y-54289285D02*
X138109523Y-54289285D01*
X138109523Y-53539285D01*
X137609523Y-53539285D02*
X137561904Y-53539285D01*
X137514285Y-53575000D01*
X137490476Y-53610714D01*
X137466666Y-53682142D01*
X137442857Y-53825000D01*
X137442857Y-54003571D01*
X137466666Y-54146428D01*
X137490476Y-54217857D01*
X137514285Y-54253571D01*
X137561904Y-54289285D01*
X137609523Y-54289285D01*
X137657142Y-54253571D01*
X137680952Y-54217857D01*
X137704761Y-54146428D01*
X137728571Y-54003571D01*
X137728571Y-53825000D01*
X137704761Y-53682142D01*
X137680952Y-53610714D01*
X137657142Y-53575000D01*
X137609523Y-53539285D01*
X138947380Y-71578428D02*
X138875952Y-71614142D01*
X138852142Y-71649857D01*
X138828333Y-71721285D01*
X138828333Y-71828428D01*
X138852142Y-71899857D01*
X138875952Y-71935571D01*
X138923571Y-71971285D01*
X139114047Y-71971285D01*
X139114047Y-71221285D01*
X138947380Y-71221285D01*
X138899761Y-71257000D01*
X138875952Y-71292714D01*
X138852142Y-71364142D01*
X138852142Y-71435571D01*
X138875952Y-71507000D01*
X138899761Y-71542714D01*
X138947380Y-71578428D01*
X139114047Y-71578428D01*
X138399761Y-71221285D02*
X138495000Y-71221285D01*
X138542619Y-71257000D01*
X138566428Y-71292714D01*
X138614047Y-71399857D01*
X138637857Y-71542714D01*
X138637857Y-71828428D01*
X138614047Y-71899857D01*
X138590238Y-71935571D01*
X138542619Y-71971285D01*
X138447380Y-71971285D01*
X138399761Y-71935571D01*
X138375952Y-71899857D01*
X138352142Y-71828428D01*
X138352142Y-71649857D01*
X138375952Y-71578428D01*
X138399761Y-71542714D01*
X138447380Y-71507000D01*
X138542619Y-71507000D01*
X138590238Y-71542714D01*
X138614047Y-71578428D01*
X138637857Y-71649857D01*
X123453380Y-71641928D02*
X123381952Y-71677642D01*
X123358142Y-71713357D01*
X123334333Y-71784785D01*
X123334333Y-71891928D01*
X123358142Y-71963357D01*
X123381952Y-71999071D01*
X123429571Y-72034785D01*
X123620047Y-72034785D01*
X123620047Y-71284785D01*
X123453380Y-71284785D01*
X123405761Y-71320500D01*
X123381952Y-71356214D01*
X123358142Y-71427642D01*
X123358142Y-71499071D01*
X123381952Y-71570500D01*
X123405761Y-71606214D01*
X123453380Y-71641928D01*
X123620047Y-71641928D01*
X122881952Y-71284785D02*
X123120047Y-71284785D01*
X123143857Y-71641928D01*
X123120047Y-71606214D01*
X123072428Y-71570500D01*
X122953380Y-71570500D01*
X122905761Y-71606214D01*
X122881952Y-71641928D01*
X122858142Y-71713357D01*
X122858142Y-71891928D01*
X122881952Y-71963357D01*
X122905761Y-71999071D01*
X122953380Y-72034785D01*
X123072428Y-72034785D01*
X123120047Y-71999071D01*
X123143857Y-71963357D01*
X123453380Y-69101928D02*
X123381952Y-69137642D01*
X123358142Y-69173357D01*
X123334333Y-69244785D01*
X123334333Y-69351928D01*
X123358142Y-69423357D01*
X123381952Y-69459071D01*
X123429571Y-69494785D01*
X123620047Y-69494785D01*
X123620047Y-68744785D01*
X123453380Y-68744785D01*
X123405761Y-68780500D01*
X123381952Y-68816214D01*
X123358142Y-68887642D01*
X123358142Y-68959071D01*
X123381952Y-69030500D01*
X123405761Y-69066214D01*
X123453380Y-69101928D01*
X123620047Y-69101928D01*
X122905761Y-68994785D02*
X122905761Y-69494785D01*
X123024809Y-68709071D02*
X123143857Y-69244785D01*
X122834333Y-69244785D01*
X139010880Y-68974928D02*
X138939452Y-69010642D01*
X138915642Y-69046357D01*
X138891833Y-69117785D01*
X138891833Y-69224928D01*
X138915642Y-69296357D01*
X138939452Y-69332071D01*
X138987071Y-69367785D01*
X139177547Y-69367785D01*
X139177547Y-68617785D01*
X139010880Y-68617785D01*
X138963261Y-68653500D01*
X138939452Y-68689214D01*
X138915642Y-68760642D01*
X138915642Y-68832071D01*
X138939452Y-68903500D01*
X138963261Y-68939214D01*
X139010880Y-68974928D01*
X139177547Y-68974928D01*
X138701357Y-68689214D02*
X138677547Y-68653500D01*
X138629928Y-68617785D01*
X138510880Y-68617785D01*
X138463261Y-68653500D01*
X138439452Y-68689214D01*
X138415642Y-68760642D01*
X138415642Y-68832071D01*
X138439452Y-68939214D01*
X138725166Y-69367785D01*
X138415642Y-69367785D01*
X123630952Y-66989285D02*
X123797619Y-66632142D01*
X123916666Y-66989285D02*
X123916666Y-66239285D01*
X123726190Y-66239285D01*
X123678571Y-66275000D01*
X123654761Y-66310714D01*
X123630952Y-66382142D01*
X123630952Y-66489285D01*
X123654761Y-66560714D01*
X123678571Y-66596428D01*
X123726190Y-66632142D01*
X123916666Y-66632142D01*
X123321428Y-66239285D02*
X123226190Y-66239285D01*
X123178571Y-66275000D01*
X123130952Y-66346428D01*
X123107142Y-66489285D01*
X123107142Y-66739285D01*
X123130952Y-66882142D01*
X123178571Y-66953571D01*
X123226190Y-66989285D01*
X123321428Y-66989285D01*
X123369047Y-66953571D01*
X123416666Y-66882142D01*
X123440476Y-66739285D01*
X123440476Y-66489285D01*
X123416666Y-66346428D01*
X123369047Y-66275000D01*
X123321428Y-66239285D01*
X122940476Y-66239285D02*
X122821428Y-66989285D01*
X122726190Y-66453571D01*
X122630952Y-66989285D01*
X122511904Y-66239285D01*
X122369047Y-66239285D02*
X122059523Y-66239285D01*
X122226190Y-66525000D01*
X122154761Y-66525000D01*
X122107142Y-66560714D01*
X122083333Y-66596428D01*
X122059523Y-66667857D01*
X122059523Y-66846428D01*
X122083333Y-66917857D01*
X122107142Y-66953571D01*
X122154761Y-66989285D01*
X122297619Y-66989285D01*
X122345238Y-66953571D01*
X122369047Y-66917857D01*
X138847619Y-66917857D02*
X138871428Y-66953571D01*
X138942857Y-66989285D01*
X138990476Y-66989285D01*
X139061904Y-66953571D01*
X139109523Y-66882142D01*
X139133333Y-66810714D01*
X139157142Y-66667857D01*
X139157142Y-66560714D01*
X139133333Y-66417857D01*
X139109523Y-66346428D01*
X139061904Y-66275000D01*
X138990476Y-66239285D01*
X138942857Y-66239285D01*
X138871428Y-66275000D01*
X138847619Y-66310714D01*
X138538095Y-66239285D02*
X138442857Y-66239285D01*
X138395238Y-66275000D01*
X138347619Y-66346428D01*
X138323809Y-66489285D01*
X138323809Y-66739285D01*
X138347619Y-66882142D01*
X138395238Y-66953571D01*
X138442857Y-66989285D01*
X138538095Y-66989285D01*
X138585714Y-66953571D01*
X138633333Y-66882142D01*
X138657142Y-66739285D01*
X138657142Y-66489285D01*
X138633333Y-66346428D01*
X138585714Y-66275000D01*
X138538095Y-66239285D01*
X137871428Y-66989285D02*
X138109523Y-66989285D01*
X138109523Y-66239285D01*
X137466666Y-66239285D02*
X137704761Y-66239285D01*
X137728571Y-66596428D01*
X137704761Y-66560714D01*
X137657142Y-66525000D01*
X137538095Y-66525000D01*
X137490476Y-66560714D01*
X137466666Y-66596428D01*
X137442857Y-66667857D01*
X137442857Y-66846428D01*
X137466666Y-66917857D01*
X137490476Y-66953571D01*
X137538095Y-66989285D01*
X137657142Y-66989285D01*
X137704761Y-66953571D01*
X137728571Y-66917857D01*
X123630952Y-64478285D02*
X123797619Y-64121142D01*
X123916666Y-64478285D02*
X123916666Y-63728285D01*
X123726190Y-63728285D01*
X123678571Y-63764000D01*
X123654761Y-63799714D01*
X123630952Y-63871142D01*
X123630952Y-63978285D01*
X123654761Y-64049714D01*
X123678571Y-64085428D01*
X123726190Y-64121142D01*
X123916666Y-64121142D01*
X123321428Y-63728285D02*
X123226190Y-63728285D01*
X123178571Y-63764000D01*
X123130952Y-63835428D01*
X123107142Y-63978285D01*
X123107142Y-64228285D01*
X123130952Y-64371142D01*
X123178571Y-64442571D01*
X123226190Y-64478285D01*
X123321428Y-64478285D01*
X123369047Y-64442571D01*
X123416666Y-64371142D01*
X123440476Y-64228285D01*
X123440476Y-63978285D01*
X123416666Y-63835428D01*
X123369047Y-63764000D01*
X123321428Y-63728285D01*
X122940476Y-63728285D02*
X122821428Y-64478285D01*
X122726190Y-63942571D01*
X122630952Y-64478285D01*
X122511904Y-63728285D01*
X122345238Y-63799714D02*
X122321428Y-63764000D01*
X122273809Y-63728285D01*
X122154761Y-63728285D01*
X122107142Y-63764000D01*
X122083333Y-63799714D01*
X122059523Y-63871142D01*
X122059523Y-63942571D01*
X122083333Y-64049714D01*
X122369047Y-64478285D01*
X122059523Y-64478285D01*
X138797619Y-64279857D02*
X138821428Y-64315571D01*
X138892857Y-64351285D01*
X138940476Y-64351285D01*
X139011904Y-64315571D01*
X139059523Y-64244142D01*
X139083333Y-64172714D01*
X139107142Y-64029857D01*
X139107142Y-63922714D01*
X139083333Y-63779857D01*
X139059523Y-63708428D01*
X139011904Y-63637000D01*
X138940476Y-63601285D01*
X138892857Y-63601285D01*
X138821428Y-63637000D01*
X138797619Y-63672714D01*
X138488095Y-63601285D02*
X138392857Y-63601285D01*
X138345238Y-63637000D01*
X138297619Y-63708428D01*
X138273809Y-63851285D01*
X138273809Y-64101285D01*
X138297619Y-64244142D01*
X138345238Y-64315571D01*
X138392857Y-64351285D01*
X138488095Y-64351285D01*
X138535714Y-64315571D01*
X138583333Y-64244142D01*
X138607142Y-64101285D01*
X138607142Y-63851285D01*
X138583333Y-63708428D01*
X138535714Y-63637000D01*
X138488095Y-63601285D01*
X137821428Y-64351285D02*
X138059523Y-64351285D01*
X138059523Y-63601285D01*
X137440476Y-63851285D02*
X137440476Y-64351285D01*
X137559523Y-63565571D02*
X137678571Y-64101285D01*
X137369047Y-64101285D01*
X123630952Y-61874785D02*
X123797619Y-61517642D01*
X123916666Y-61874785D02*
X123916666Y-61124785D01*
X123726190Y-61124785D01*
X123678571Y-61160500D01*
X123654761Y-61196214D01*
X123630952Y-61267642D01*
X123630952Y-61374785D01*
X123654761Y-61446214D01*
X123678571Y-61481928D01*
X123726190Y-61517642D01*
X123916666Y-61517642D01*
X123321428Y-61124785D02*
X123226190Y-61124785D01*
X123178571Y-61160500D01*
X123130952Y-61231928D01*
X123107142Y-61374785D01*
X123107142Y-61624785D01*
X123130952Y-61767642D01*
X123178571Y-61839071D01*
X123226190Y-61874785D01*
X123321428Y-61874785D01*
X123369047Y-61839071D01*
X123416666Y-61767642D01*
X123440476Y-61624785D01*
X123440476Y-61374785D01*
X123416666Y-61231928D01*
X123369047Y-61160500D01*
X123321428Y-61124785D01*
X122940476Y-61124785D02*
X122821428Y-61874785D01*
X122726190Y-61339071D01*
X122630952Y-61874785D01*
X122511904Y-61124785D01*
X122059523Y-61874785D02*
X122345238Y-61874785D01*
X122202380Y-61874785D02*
X122202380Y-61124785D01*
X122250000Y-61231928D01*
X122297619Y-61303357D01*
X122345238Y-61339071D01*
D12*
X127422380Y-76060619D02*
X126946190Y-75727285D01*
X127422380Y-75489190D02*
X126422380Y-75489190D01*
X126422380Y-75870142D01*
X126470000Y-75965380D01*
X126517619Y-76013000D01*
X126612857Y-76060619D01*
X126755714Y-76060619D01*
X126850952Y-76013000D01*
X126898571Y-75965380D01*
X126946190Y-75870142D01*
X126946190Y-75489190D01*
X126898571Y-76489190D02*
X126898571Y-76822523D01*
X127422380Y-76965380D02*
X127422380Y-76489190D01*
X126422380Y-76489190D01*
X126422380Y-76965380D01*
X127374761Y-77346333D02*
X127422380Y-77489190D01*
X127422380Y-77727285D01*
X127374761Y-77822523D01*
X127327142Y-77870142D01*
X127231904Y-77917761D01*
X127136666Y-77917761D01*
X127041428Y-77870142D01*
X126993809Y-77822523D01*
X126946190Y-77727285D01*
X126898571Y-77536809D01*
X126850952Y-77441571D01*
X126803333Y-77393952D01*
X126708095Y-77346333D01*
X126612857Y-77346333D01*
X126517619Y-77393952D01*
X126470000Y-77441571D01*
X126422380Y-77536809D01*
X126422380Y-77774904D01*
X126470000Y-77917761D01*
X126898571Y-78346333D02*
X126898571Y-78679666D01*
X127422380Y-78822523D02*
X127422380Y-78346333D01*
X126422380Y-78346333D01*
X126422380Y-78822523D01*
X126422380Y-79108238D02*
X126422380Y-79679666D01*
X127422380Y-79393952D02*
X126422380Y-79393952D01*
X135058880Y-76492595D02*
X135058880Y-77064023D01*
X136058880Y-76778309D02*
X135058880Y-76778309D01*
X136058880Y-77968785D02*
X135582690Y-77635452D01*
X136058880Y-77397357D02*
X135058880Y-77397357D01*
X135058880Y-77778309D01*
X135106500Y-77873547D01*
X135154119Y-77921166D01*
X135249357Y-77968785D01*
X135392214Y-77968785D01*
X135487452Y-77921166D01*
X135535071Y-77873547D01*
X135582690Y-77778309D01*
X135582690Y-77397357D01*
X136058880Y-78968785D02*
X135582690Y-78635452D01*
X136058880Y-78397357D02*
X135058880Y-78397357D01*
X135058880Y-78778309D01*
X135106500Y-78873547D01*
X135154119Y-78921166D01*
X135249357Y-78968785D01*
X135392214Y-78968785D01*
X135487452Y-78921166D01*
X135535071Y-78873547D01*
X135582690Y-78778309D01*
X135582690Y-78397357D01*
X136011261Y-79349738D02*
X136058880Y-79492595D01*
X136058880Y-79730690D01*
X136011261Y-79825928D01*
X135963642Y-79873547D01*
X135868404Y-79921166D01*
X135773166Y-79921166D01*
X135677928Y-79873547D01*
X135630309Y-79825928D01*
X135582690Y-79730690D01*
X135535071Y-79540214D01*
X135487452Y-79444976D01*
X135439833Y-79397357D01*
X135344595Y-79349738D01*
X135249357Y-79349738D01*
X135154119Y-79397357D01*
X135106500Y-79444976D01*
X135058880Y-79540214D01*
X135058880Y-79778309D01*
X135106500Y-79921166D01*
G36*
X97042167Y-35603840D02*
G01*
X96651916Y-36155312D01*
X96287532Y-36705026D01*
X96018642Y-37148718D01*
X95632548Y-37842989D01*
X96018642Y-37748884D01*
X96692930Y-37458615D01*
X97364738Y-36904420D01*
X98001339Y-36100233D01*
X98088726Y-35970854D01*
X98580566Y-35344549D01*
X99091146Y-34910959D01*
X99700581Y-34615436D01*
X100488984Y-34403330D01*
X101020716Y-34275875D01*
X101704655Y-34027854D01*
X102199899Y-33708298D01*
X102554211Y-33291492D01*
X102762908Y-32995794D01*
X102917467Y-32891952D01*
X102998586Y-33041483D01*
X103022106Y-33449743D01*
X103021105Y-33515869D01*
X102943395Y-33971682D01*
X102718472Y-34394052D01*
X102313530Y-34829330D01*
X101695767Y-35323868D01*
X101393478Y-35564773D01*
X101045789Y-35954635D01*
X100826413Y-36425224D01*
X100681341Y-37069473D01*
X100500474Y-37711795D01*
X100065985Y-38415585D01*
X99602419Y-38815258D01*
X99398253Y-38991284D01*
X99182736Y-39146054D01*
X98788161Y-39512345D01*
X98458331Y-39912114D01*
X98369244Y-40020091D01*
X97881715Y-40719748D01*
X97586524Y-41149871D01*
X97162343Y-41722398D01*
X96763381Y-42215124D01*
X96447341Y-42554250D01*
X96076666Y-42969949D01*
X95639178Y-43631587D01*
X95241391Y-44377058D01*
X95161838Y-44526145D01*
X94870358Y-45102134D01*
X94595348Y-45589164D01*
X94344059Y-45944154D01*
X94120670Y-46177695D01*
X94072606Y-46227943D01*
X93737107Y-46501370D01*
X93164579Y-46998757D01*
X92813689Y-47483740D01*
X92676172Y-47992060D01*
X92729322Y-48570332D01*
X92752072Y-48668468D01*
X92901265Y-49201760D01*
X93068696Y-49660946D01*
X93228946Y-49983729D01*
X93356600Y-50107811D01*
X94372373Y-50217591D01*
X95404271Y-50469681D01*
X96291840Y-50835362D01*
X96307316Y-50843560D01*
X96947372Y-51143291D01*
X97464762Y-51279347D01*
X97938529Y-51261395D01*
X98447715Y-51099107D01*
X98667603Y-51025765D01*
X99176694Y-50920605D01*
X99707976Y-50870162D01*
X99854395Y-50867213D01*
X100278622Y-50888536D01*
X100567008Y-50982768D01*
X100821700Y-51178160D01*
X100897898Y-51247493D01*
X101065615Y-51368034D01*
X101271144Y-51444172D01*
X101571867Y-51486027D01*
X102025167Y-51503719D01*
X102688424Y-51507368D01*
X102835202Y-51507493D01*
X103462185Y-51514444D01*
X103891737Y-51538835D01*
X104182536Y-51590058D01*
X104393263Y-51677506D01*
X104582595Y-51810571D01*
X104709911Y-51912655D01*
X105243794Y-52335516D01*
X105627908Y-52619260D01*
X105910499Y-52788475D01*
X106139811Y-52867749D01*
X106364089Y-52881671D01*
X106631579Y-52854827D01*
X107365026Y-52762753D01*
X107994545Y-52693396D01*
X108444085Y-52664923D01*
X108758971Y-52679964D01*
X108984533Y-52741149D01*
X109166098Y-52851106D01*
X109348996Y-53012465D01*
X109425175Y-53083602D01*
X109493295Y-53138121D01*
X109866948Y-53437167D01*
X110307051Y-53646273D01*
X110876053Y-53776226D01*
X111224425Y-53853684D01*
X111411869Y-53971288D01*
X111339044Y-54128919D01*
X111009737Y-54342626D01*
X110800377Y-54436308D01*
X110460751Y-54516332D01*
X109993229Y-54550339D01*
X109328879Y-54546697D01*
X108894725Y-54538659D01*
X108420613Y-54548855D01*
X108080164Y-54597854D01*
X107793725Y-54699493D01*
X107481640Y-54867609D01*
X107226682Y-55009589D01*
X106956253Y-55119908D01*
X106657191Y-55171893D01*
X106250206Y-55177803D01*
X105656010Y-55149900D01*
X105120931Y-55123703D01*
X104691619Y-55125511D01*
X104369467Y-55174013D01*
X104069778Y-55282956D01*
X103707852Y-55466086D01*
X103700650Y-55469921D01*
X102943444Y-55771140D01*
X102266449Y-55832170D01*
X101685263Y-55651579D01*
X101661514Y-55638266D01*
X101110682Y-55468764D01*
X100505994Y-55544915D01*
X99827433Y-55869063D01*
X99510567Y-56057450D01*
X99180054Y-56198558D01*
X98846140Y-56235134D01*
X98381445Y-56195976D01*
X97808380Y-56136403D01*
X97317482Y-56121964D01*
X96919096Y-56179211D01*
X96521694Y-56322590D01*
X96033747Y-56566548D01*
X95876738Y-56649304D01*
X95465245Y-56850225D01*
X95174044Y-56942672D01*
X94916844Y-56945446D01*
X94607356Y-56877351D01*
X94243473Y-56801809D01*
X93923262Y-56828412D01*
X93555398Y-56991942D01*
X93269462Y-57188732D01*
X92840555Y-57708245D01*
X92560981Y-58382285D01*
X92461053Y-59151043D01*
X92461305Y-59213936D01*
X92496032Y-59661442D01*
X92623165Y-59993176D01*
X92890981Y-60342989D01*
X93120225Y-60580984D01*
X93557312Y-60978356D01*
X94012029Y-61343210D01*
X94127142Y-61429856D01*
X94528091Y-61773077D01*
X94852687Y-62147243D01*
X95137406Y-62609157D01*
X95418726Y-63215625D01*
X95448313Y-63291646D01*
X95733123Y-64023451D01*
X95853258Y-64334338D01*
X96224664Y-65112654D01*
X96631090Y-65672020D01*
X97103813Y-66048787D01*
X97674107Y-66279304D01*
X97925788Y-66360471D01*
X98224993Y-66554774D01*
X98420112Y-66884634D01*
X98427755Y-66903235D01*
X98557099Y-67330868D01*
X98610527Y-67725757D01*
X98632354Y-68046782D01*
X98792202Y-68567632D01*
X99134876Y-69073652D01*
X99693030Y-69622044D01*
X100174952Y-70087331D01*
X100649186Y-70705123D01*
X101028626Y-71438002D01*
X101359580Y-72362105D01*
X101490878Y-72731935D01*
X101788238Y-73270712D01*
X102243482Y-73786497D01*
X102393242Y-73935391D01*
X102657539Y-74229291D01*
X102743665Y-74402056D01*
X102672820Y-74488339D01*
X102137087Y-74570444D01*
X101549021Y-74409342D01*
X100957231Y-74003631D01*
X100381873Y-73363211D01*
X100066065Y-72941018D01*
X99693252Y-72461604D01*
X99401439Y-72126211D01*
X99146482Y-71890397D01*
X98884235Y-71709722D01*
X98570554Y-71539744D01*
X98440199Y-71475877D01*
X97926982Y-71245027D01*
X97304408Y-70985656D01*
X96679157Y-70742719D01*
X96057878Y-70494809D01*
X95508906Y-70209559D01*
X95096413Y-69879553D01*
X94753014Y-69448899D01*
X94411322Y-68861704D01*
X94364408Y-68775671D01*
X94059008Y-68322891D01*
X93675570Y-67950215D01*
X93167603Y-67627053D01*
X92488612Y-67322819D01*
X91592106Y-67006925D01*
X90877296Y-66734868D01*
X90275121Y-66385980D01*
X89872409Y-65970903D01*
X89633023Y-65461123D01*
X89594288Y-65352535D01*
X89268167Y-64892291D01*
X88736559Y-64534761D01*
X88041313Y-64301606D01*
X87224280Y-64214484D01*
X86623004Y-64248490D01*
X86071758Y-64413463D01*
X85657037Y-64745346D01*
X85319252Y-65277390D01*
X85261393Y-65397738D01*
X85161844Y-65664913D01*
X85125066Y-65945495D01*
X85145851Y-66322742D01*
X85218989Y-66879911D01*
X85296401Y-67422798D01*
X85347788Y-67881053D01*
X85345830Y-68197449D01*
X85281115Y-68438901D01*
X85144231Y-68672326D01*
X84925766Y-68964640D01*
X84863689Y-69047001D01*
X84550151Y-69530316D01*
X84401590Y-69964336D01*
X84399453Y-70446827D01*
X84525187Y-71075551D01*
X84555430Y-71228491D01*
X84653206Y-71722957D01*
X84659803Y-71951479D01*
X84676574Y-72532376D01*
X84502031Y-73254618D01*
X84120618Y-73953411D01*
X83937608Y-74226750D01*
X83634322Y-74759540D01*
X83496222Y-75192264D01*
X83508805Y-75589520D01*
X83657569Y-76015906D01*
X83913033Y-76573158D01*
X111711579Y-76573158D01*
X111711579Y-85797368D01*
X52088421Y-85797368D01*
X52088421Y-84594210D01*
X52623158Y-84594210D01*
X54435588Y-84594210D01*
X55015333Y-82822894D01*
X55081404Y-82622512D01*
X55296117Y-81991578D01*
X55485321Y-81464793D01*
X55630548Y-81092384D01*
X55713328Y-80924579D01*
X55726191Y-80920173D01*
X55768874Y-81062538D01*
X55802188Y-81428744D01*
X55823851Y-81984595D01*
X55831579Y-82695894D01*
X55831579Y-84594210D01*
X57168421Y-84594210D01*
X57168421Y-83604159D01*
X57569474Y-83604159D01*
X58076426Y-84099185D01*
X58583379Y-84594210D01*
X59809821Y-84594210D01*
X59874519Y-84594197D01*
X60436424Y-84588788D01*
X60809223Y-84560993D01*
X61064484Y-84492551D01*
X61273773Y-84365195D01*
X61508659Y-84160662D01*
X61981053Y-83727114D01*
X61981053Y-83604159D01*
X62515790Y-83604159D01*
X62641707Y-83727114D01*
X63022742Y-84099185D01*
X63529694Y-84594210D01*
X65937317Y-84594210D01*
X66442137Y-84077228D01*
X66472850Y-84045607D01*
X66765407Y-83704057D01*
X66894031Y-83423036D01*
X66903742Y-83108017D01*
X66873806Y-82874287D01*
X66791343Y-82721738D01*
X66588628Y-82664486D01*
X66192106Y-82655789D01*
X65997959Y-82657624D01*
X65684805Y-82687666D01*
X65536302Y-82779041D01*
X65480131Y-82962948D01*
X65446801Y-83108487D01*
X65345227Y-83210886D01*
X65113764Y-83243857D01*
X64684193Y-83230316D01*
X64524383Y-83222938D01*
X64209585Y-83202882D01*
X64032769Y-83138387D01*
X63958210Y-82973730D01*
X63950178Y-82653192D01*
X63972948Y-82121052D01*
X63979802Y-82017540D01*
X64026861Y-81887266D01*
X64167629Y-81818433D01*
X64459987Y-81791479D01*
X64961817Y-81786842D01*
X65265972Y-81785542D01*
X65668174Y-81764342D01*
X65938193Y-81693148D01*
X66163694Y-81541738D01*
X66432343Y-81279889D01*
X66594841Y-81110260D01*
X66782871Y-80873235D01*
X66882058Y-80628485D01*
X66920769Y-80289470D01*
X66927369Y-79769652D01*
X66925653Y-79419482D01*
X66908203Y-79113158D01*
X69868421Y-79113158D01*
X72007369Y-79113158D01*
X72007369Y-80482438D01*
X70937895Y-80414162D01*
X69868421Y-80345885D01*
X69868421Y-81786842D01*
X72007369Y-81786842D01*
X72007369Y-83257368D01*
X69868421Y-83257368D01*
X69868421Y-84594210D01*
X73482409Y-84594210D01*
X73878948Y-84594210D01*
X75349474Y-84594210D01*
X75349474Y-81653158D01*
X76953685Y-81653158D01*
X76953685Y-84594210D01*
X78290527Y-84594210D01*
X78290527Y-79113158D01*
X78825263Y-79113158D01*
X80162106Y-79113158D01*
X80162106Y-84594210D01*
X81498948Y-84594210D01*
X85762193Y-84594210D01*
X89520000Y-84594210D01*
X89520000Y-81207544D01*
X89518522Y-80428840D01*
X89513641Y-79647894D01*
X89921053Y-79647894D01*
X90656316Y-79647894D01*
X90929124Y-79644727D01*
X91228542Y-79614340D01*
X91361445Y-79531969D01*
X91391579Y-79373855D01*
X91404917Y-79248796D01*
X91495226Y-79156184D01*
X91726053Y-79126266D01*
X92160263Y-79139907D01*
X92928948Y-79180000D01*
X92928948Y-80383158D01*
X91889485Y-80422263D01*
X91523722Y-80438026D01*
X91121419Y-80475949D01*
X90852594Y-80555708D01*
X90635692Y-80706369D01*
X90389154Y-80957000D01*
X90216768Y-81148058D01*
X90054571Y-81376896D01*
X89967856Y-81628988D01*
X89932573Y-81985700D01*
X89924670Y-82528395D01*
X89926252Y-83015295D01*
X89951683Y-83382123D01*
X90026759Y-83631912D01*
X90177020Y-83844365D01*
X90428005Y-84099185D01*
X90934958Y-84594210D01*
X93380004Y-84594210D01*
X93443358Y-84527368D01*
X94835433Y-84527368D01*
X95519822Y-84567775D01*
X96204211Y-84608183D01*
X102086316Y-84608183D01*
X102788158Y-84567775D01*
X103490000Y-84527368D01*
X103566524Y-81920526D01*
X105027369Y-81920526D01*
X105027369Y-84594210D01*
X106497895Y-84594210D01*
X106497895Y-81652387D01*
X106898948Y-81652387D01*
X107377298Y-82181864D01*
X107505874Y-82322234D01*
X107741771Y-82542949D01*
X107979497Y-82664543D01*
X108307544Y-82722027D01*
X108814403Y-82750407D01*
X109773158Y-82789473D01*
X109812687Y-83691842D01*
X109852216Y-84594210D01*
X111176842Y-84594210D01*
X111176842Y-77616921D01*
X109541368Y-77686429D01*
X107905894Y-77755936D01*
X106898948Y-78835436D01*
X106898948Y-81652387D01*
X106497895Y-81652387D01*
X106497895Y-77642631D01*
X103156560Y-77642631D01*
X102621438Y-78126082D01*
X102086316Y-78609532D01*
X102086316Y-79709573D01*
X102086334Y-79742593D01*
X102097089Y-80300440D01*
X102136729Y-80660731D01*
X102218528Y-80889669D01*
X102355759Y-81053456D01*
X102625202Y-81297298D01*
X102355759Y-81584107D01*
X102267167Y-81691875D01*
X102173625Y-81884737D01*
X102118711Y-82167593D01*
X102092813Y-82599509D01*
X102086316Y-83239549D01*
X102086316Y-84608183D01*
X96204211Y-84608183D01*
X96204211Y-84402411D01*
X96738948Y-84402411D01*
X96788071Y-84503226D01*
X97009930Y-84573469D01*
X97451805Y-84594210D01*
X98164663Y-84594210D01*
X98287332Y-83959210D01*
X98336133Y-83723289D01*
X98431084Y-83450780D01*
X98585618Y-83328168D01*
X98862972Y-83280939D01*
X99285918Y-83261335D01*
X99666443Y-83336431D01*
X99894771Y-83557202D01*
X100028160Y-83956866D01*
X100147928Y-84527368D01*
X100849754Y-84567775D01*
X101175006Y-84576858D01*
X101464660Y-84539205D01*
X101554655Y-84434091D01*
X101551732Y-84393367D01*
X101508411Y-84117441D01*
X101420718Y-83642016D01*
X101298175Y-83012898D01*
X101150300Y-82275890D01*
X100986615Y-81476795D01*
X100816639Y-80661417D01*
X100649893Y-79875560D01*
X100495896Y-79165029D01*
X100364168Y-78575626D01*
X100264230Y-78153155D01*
X100205601Y-77943421D01*
X100199636Y-77928564D01*
X100108172Y-77775060D01*
X99947806Y-77688862D01*
X99652450Y-77651032D01*
X99156019Y-77642631D01*
X99136111Y-77642658D01*
X98665927Y-77659728D01*
X98312796Y-77702286D01*
X98151821Y-77761448D01*
X98151540Y-77762343D01*
X98117512Y-77870904D01*
X98034034Y-78209189D01*
X97914147Y-78730368D01*
X97767197Y-79390509D01*
X97602532Y-80145680D01*
X97429497Y-80951948D01*
X97257440Y-81765382D01*
X97095707Y-82542050D01*
X96953645Y-83238018D01*
X96840600Y-83809356D01*
X96765918Y-84212131D01*
X96738948Y-84402411D01*
X96204211Y-84402411D01*
X96204211Y-77762343D01*
X95523921Y-77802750D01*
X94843632Y-77843158D01*
X94839532Y-81185263D01*
X94837810Y-82588947D01*
X94835433Y-84527368D01*
X93443358Y-84527368D01*
X93855158Y-84092894D01*
X94082605Y-83830313D01*
X94277316Y-83477953D01*
X94331472Y-83090263D01*
X94332632Y-82588947D01*
X93673509Y-82588947D01*
X93506318Y-82590339D01*
X93183487Y-82618958D01*
X93029420Y-82708407D01*
X92971667Y-82889737D01*
X92944046Y-83009556D01*
X92838930Y-83131509D01*
X92599913Y-83195852D01*
X92160263Y-83230618D01*
X91391579Y-83270711D01*
X91391579Y-81786842D01*
X92360790Y-81786203D01*
X92563808Y-81785420D01*
X93008287Y-81767336D01*
X93307294Y-81703531D01*
X93551436Y-81565597D01*
X93831316Y-81325124D01*
X94332632Y-80864683D01*
X94332632Y-79747776D01*
X94329395Y-79264968D01*
X94305094Y-78881338D01*
X94238320Y-78626513D01*
X94107683Y-78425572D01*
X93891794Y-78203592D01*
X93838307Y-78151963D01*
X93632995Y-77971341D01*
X93432804Y-77860486D01*
X93169614Y-77802377D01*
X92775303Y-77779994D01*
X92181751Y-77776315D01*
X91963788Y-77776431D01*
X91443907Y-77783640D01*
X91099014Y-77815515D01*
X90859361Y-77890534D01*
X90655205Y-78027175D01*
X90416799Y-78243918D01*
X90167711Y-78502306D01*
X89973907Y-78823377D01*
X89921053Y-79179707D01*
X89921053Y-79647894D01*
X89513641Y-79647894D01*
X89513213Y-79579430D01*
X89504597Y-78852016D01*
X89493258Y-78282941D01*
X89479780Y-77908546D01*
X89464745Y-77765175D01*
X89448722Y-77759516D01*
X89236959Y-77744263D01*
X88822336Y-77737361D01*
X88255261Y-77739212D01*
X87586140Y-77750218D01*
X85762791Y-77790963D01*
X85843685Y-79046315D01*
X86953679Y-79085258D01*
X87748934Y-79113158D01*
X88063672Y-79124200D01*
X87982632Y-80383158D01*
X85843685Y-80383158D01*
X85803277Y-81085000D01*
X85762870Y-81786842D01*
X88049474Y-81786842D01*
X88049474Y-83246555D01*
X86946579Y-83285383D01*
X85843685Y-83324210D01*
X85762193Y-84594210D01*
X81498948Y-84594210D01*
X81498948Y-79113158D01*
X82969474Y-79113158D01*
X82969474Y-77816352D01*
X81745779Y-77729492D01*
X81592932Y-77719076D01*
X80900201Y-77680186D01*
X80217757Y-77652915D01*
X79673674Y-77642631D01*
X78825263Y-77642631D01*
X78825263Y-79113158D01*
X78290527Y-79113158D01*
X78290527Y-77776315D01*
X76953685Y-77776315D01*
X76953685Y-80157886D01*
X76206992Y-80203680D01*
X75894311Y-80217572D01*
X75557839Y-80216741D01*
X75404887Y-80193772D01*
X75393609Y-80157689D01*
X75371003Y-79911585D01*
X75355335Y-79490067D01*
X75349474Y-78957193D01*
X75349474Y-77776315D01*
X73878948Y-77776315D01*
X73878948Y-84594210D01*
X73482409Y-84594210D01*
X73446731Y-81175656D01*
X73411053Y-77757101D01*
X71840263Y-77761934D01*
X71248297Y-77764048D01*
X70690273Y-77766651D01*
X70276664Y-77769260D01*
X70068948Y-77771541D01*
X69966133Y-77815363D01*
X69890401Y-78022457D01*
X69868421Y-78444737D01*
X69868421Y-79113158D01*
X66908203Y-79113158D01*
X66903200Y-79025338D01*
X66831495Y-78760271D01*
X66681968Y-78539225D01*
X66426053Y-78277148D01*
X66353184Y-78206224D01*
X66126822Y-78002308D01*
X65917172Y-77877059D01*
X65653223Y-77809682D01*
X65263965Y-77779383D01*
X64678387Y-77765368D01*
X64495778Y-77762134D01*
X63971295Y-77759085D01*
X63626092Y-77782913D01*
X63390944Y-77850737D01*
X63196626Y-77979673D01*
X62973913Y-78186839D01*
X62754097Y-78421238D01*
X62565898Y-78750362D01*
X62515790Y-79139382D01*
X62515790Y-79647894D01*
X63251053Y-79647894D01*
X63553900Y-79638852D01*
X63858771Y-79602434D01*
X63970485Y-79547631D01*
X63957898Y-79384884D01*
X64032606Y-79214082D01*
X64270015Y-79133428D01*
X64721579Y-79113158D01*
X65456842Y-79113158D01*
X65456842Y-80450000D01*
X64413593Y-80450000D01*
X64058286Y-80451815D01*
X63651390Y-80472864D01*
X63382982Y-80537134D01*
X63173421Y-80668500D01*
X62943067Y-80890838D01*
X62762728Y-81085702D01*
X62624234Y-81292560D01*
X62550450Y-81541917D01*
X62521071Y-81908720D01*
X62515790Y-82467917D01*
X62515790Y-83604159D01*
X61981053Y-83604159D01*
X61981053Y-77788431D01*
X61526509Y-77703158D01*
X61366555Y-77672514D01*
X61096318Y-77628641D01*
X60895673Y-77636038D01*
X60753692Y-77725563D01*
X60659446Y-77928075D01*
X60602006Y-78274433D01*
X60570444Y-78795495D01*
X60553830Y-79522119D01*
X60541235Y-80485164D01*
X60505102Y-83257368D01*
X59040000Y-83257368D01*
X59040000Y-77776315D01*
X57569474Y-77776315D01*
X57569474Y-83604159D01*
X57168421Y-83604159D01*
X57168421Y-77776315D01*
X55363685Y-77777025D01*
X54788365Y-79351157D01*
X54776309Y-79384112D01*
X54546591Y-80000484D01*
X54340663Y-80532892D01*
X54180623Y-80925411D01*
X54088570Y-81122119D01*
X54037963Y-81100322D01*
X53996960Y-80828917D01*
X53971407Y-80308267D01*
X53962047Y-79547631D01*
X53960000Y-77776315D01*
X52623158Y-77776315D01*
X52623158Y-84594210D01*
X52088421Y-84594210D01*
X52088421Y-76573158D01*
X74409365Y-76573158D01*
X73862278Y-75069210D01*
X73480657Y-74006670D01*
X73117996Y-72956619D01*
X72844006Y-72105978D01*
X72650922Y-71429108D01*
X72648804Y-71419771D01*
X73477895Y-71419771D01*
X73492106Y-71498352D01*
X73581356Y-71807392D01*
X73738944Y-72291908D01*
X73948991Y-72903772D01*
X74195614Y-73594857D01*
X74321505Y-73942239D01*
X74575601Y-74648441D01*
X74799587Y-75277414D01*
X74972888Y-75771200D01*
X75074929Y-76071842D01*
X75079145Y-76084917D01*
X75182736Y-76366137D01*
X75312134Y-76511199D01*
X75547858Y-76565181D01*
X75970429Y-76573158D01*
X76215464Y-76570739D01*
X76519602Y-76544663D01*
X76640530Y-76473996D01*
X76633595Y-76339210D01*
X76604269Y-76229841D01*
X76514410Y-75807702D01*
X76408329Y-75225071D01*
X76296977Y-74552488D01*
X76191306Y-73860493D01*
X76102268Y-73219625D01*
X76040813Y-72700426D01*
X76029433Y-72538062D01*
X76871058Y-72538062D01*
X76906764Y-72921481D01*
X76942465Y-73180353D01*
X77028951Y-73717087D01*
X77143037Y-74366270D01*
X77269571Y-75039459D01*
X77548968Y-76473996D01*
X77555263Y-76506315D01*
X82399623Y-76579053D01*
X82476232Y-76074790D01*
X82550702Y-75553338D01*
X82637243Y-74883246D01*
X82721637Y-74173278D01*
X82798548Y-73474275D01*
X82862636Y-72837080D01*
X82908564Y-72312534D01*
X82930992Y-71951479D01*
X82924582Y-71804757D01*
X82861963Y-71803028D01*
X82621206Y-71894419D01*
X82278127Y-72075999D01*
X81517736Y-72433969D01*
X80424586Y-72721780D01*
X79270511Y-72809404D01*
X78125308Y-72692931D01*
X77058772Y-72368448D01*
X76990343Y-72343242D01*
X76893892Y-72363600D01*
X76871058Y-72538062D01*
X76029433Y-72538062D01*
X76017895Y-72373436D01*
X76017895Y-71817819D01*
X75316053Y-71813891D01*
X74808271Y-71768299D01*
X74046053Y-71515159D01*
X74019296Y-71501319D01*
X73684086Y-71344485D01*
X73520835Y-71320192D01*
X73477895Y-71419771D01*
X72648804Y-71419771D01*
X72530977Y-70900368D01*
X72476404Y-70494121D01*
X72456272Y-70311677D01*
X72333431Y-69763673D01*
X72151783Y-69292523D01*
X71961805Y-68788709D01*
X71900024Y-68228105D01*
X72686793Y-68228105D01*
X72770329Y-68806061D01*
X73001240Y-69446020D01*
X73252061Y-69899215D01*
X73566378Y-70236816D01*
X74035986Y-70547660D01*
X74178632Y-70624912D01*
X74647188Y-70824102D01*
X75087643Y-70942406D01*
X75445756Y-70973320D01*
X75667284Y-70910340D01*
X75697987Y-70746961D01*
X75681148Y-70690671D01*
X75635263Y-70374414D01*
X75616842Y-69966382D01*
X75536854Y-69426673D01*
X75419804Y-69223640D01*
X76467826Y-69223640D01*
X76473313Y-69977858D01*
X76479868Y-70041291D01*
X76557044Y-70648198D01*
X76582461Y-70746961D01*
X76661048Y-71052326D01*
X76828429Y-71312873D01*
X77095737Y-71489041D01*
X77499521Y-71640028D01*
X77604067Y-71672062D01*
X78207943Y-71797480D01*
X78891399Y-71861992D01*
X79605091Y-71870215D01*
X80299672Y-71826762D01*
X80925798Y-71736248D01*
X81434125Y-71603289D01*
X81775307Y-71432498D01*
X81900000Y-71228491D01*
X81900000Y-71227946D01*
X81801494Y-70875457D01*
X81535464Y-70408188D01*
X81144898Y-69875983D01*
X80672789Y-69328687D01*
X80162126Y-68816143D01*
X79655900Y-68388196D01*
X79197102Y-68094690D01*
X78974076Y-67989962D01*
X78333920Y-67787823D01*
X77781567Y-67795952D01*
X77260964Y-68011956D01*
X76997730Y-68199993D01*
X76637278Y-68644380D01*
X76467826Y-69223640D01*
X75419804Y-69223640D01*
X75257011Y-68941264D01*
X74898347Y-68528404D01*
X74233272Y-67938763D01*
X73566662Y-67550019D01*
X73248624Y-67434185D01*
X73051789Y-67435145D01*
X72884316Y-67560571D01*
X72754226Y-67770114D01*
X72686793Y-68228105D01*
X71900024Y-68228105D01*
X71873685Y-67989102D01*
X71863498Y-67650621D01*
X71827112Y-67338036D01*
X71773421Y-67218819D01*
X71766217Y-67220525D01*
X71630785Y-67345671D01*
X71395998Y-67629690D01*
X71108011Y-68017200D01*
X70860150Y-68337485D01*
X70037743Y-69146287D01*
X68965087Y-69907118D01*
X67634911Y-70625436D01*
X67298464Y-70789001D01*
X66820465Y-71043038D01*
X66504403Y-71258844D01*
X66294430Y-71477989D01*
X66134694Y-71742041D01*
X66019240Y-71949110D01*
X65671211Y-72393954D01*
X65210535Y-72744165D01*
X64598682Y-73018930D01*
X63797121Y-73237435D01*
X62767321Y-73418869D01*
X62473406Y-73465819D01*
X61876296Y-73583952D01*
X61373411Y-73712171D01*
X61050424Y-73829963D01*
X60986722Y-73861622D01*
X60698372Y-73970667D01*
X60540211Y-73973719D01*
X60542784Y-73888508D01*
X60698579Y-73664362D01*
X60990107Y-73359067D01*
X61370149Y-73017162D01*
X61791484Y-72683186D01*
X62206892Y-72401678D01*
X62431999Y-72258413D01*
X62785645Y-71971115D01*
X63061215Y-71615447D01*
X63339399Y-71098564D01*
X63866996Y-70245296D01*
X64666954Y-69347172D01*
X64737882Y-69277920D01*
X65173134Y-68828940D01*
X65460428Y-68463697D01*
X65651433Y-68106002D01*
X65797819Y-67679668D01*
X66055731Y-67025929D01*
X66444223Y-66515293D01*
X66812602Y-66185158D01*
X67252561Y-65783647D01*
X67550031Y-65488511D01*
X67739080Y-65255010D01*
X67853778Y-65038403D01*
X67928192Y-64793950D01*
X67996391Y-64476911D01*
X68062658Y-64171102D01*
X68206609Y-63645066D01*
X68373821Y-63289123D01*
X68601497Y-63037145D01*
X68853305Y-62871404D01*
X70111279Y-62871404D01*
X70224349Y-63084777D01*
X70493636Y-63384419D01*
X70660074Y-63545832D01*
X70972214Y-63780790D01*
X71205793Y-63873158D01*
X71350725Y-63894888D01*
X71546894Y-64018848D01*
X71734632Y-64100996D01*
X72098298Y-64077985D01*
X72491666Y-64060697D01*
X73144182Y-64214663D01*
X73385939Y-64304036D01*
X73659450Y-64368850D01*
X73867828Y-64321641D01*
X74125251Y-64155526D01*
X74293597Y-64039701D01*
X74577063Y-63899208D01*
X74787884Y-63933318D01*
X75015263Y-64140526D01*
X75120493Y-64252703D01*
X75308526Y-64383011D01*
X75490149Y-64324887D01*
X75754138Y-64069840D01*
X75780482Y-64042681D01*
X76057499Y-63834150D01*
X76291911Y-63769051D01*
X76539693Y-63742581D01*
X76868577Y-63615549D01*
X77105401Y-63510454D01*
X77321027Y-63525358D01*
X77601071Y-63702783D01*
X77977086Y-63980783D01*
X78340032Y-63525918D01*
X78588133Y-63252571D01*
X78867844Y-63098202D01*
X79117938Y-63193496D01*
X79377714Y-63538947D01*
X79483688Y-63711676D01*
X79679189Y-63950008D01*
X79843997Y-63973424D01*
X80030926Y-63803297D01*
X80155129Y-63706350D01*
X80448348Y-63678622D01*
X80501215Y-63690682D01*
X80563409Y-63673068D01*
X80611317Y-63588521D01*
X80647087Y-63408407D01*
X80672870Y-63104093D01*
X80690815Y-62646945D01*
X80703072Y-62008330D01*
X80711792Y-61159615D01*
X80719123Y-60072166D01*
X80719472Y-60014664D01*
X80725733Y-59042084D01*
X80732115Y-58151708D01*
X80738303Y-57380570D01*
X80743981Y-56765700D01*
X80748834Y-56344131D01*
X80752544Y-56152894D01*
X80748658Y-56095483D01*
X80690136Y-56015432D01*
X80604124Y-55985789D01*
X81190619Y-55985789D01*
X81197487Y-56152894D01*
X81304627Y-58759737D01*
X81305977Y-58792590D01*
X81353762Y-59952269D01*
X81392072Y-60874709D01*
X81422166Y-61589083D01*
X81445305Y-62124560D01*
X81462749Y-62510313D01*
X81475757Y-62775513D01*
X81485590Y-62949331D01*
X81584255Y-63133495D01*
X81839448Y-63316962D01*
X82055635Y-63393257D01*
X82490669Y-63465936D01*
X82927973Y-63466035D01*
X83280215Y-63396591D01*
X83460065Y-63260639D01*
X83468515Y-63218735D01*
X83471548Y-62937549D01*
X83444578Y-62463763D01*
X83391325Y-61851556D01*
X83315509Y-61155113D01*
X83223587Y-60316612D01*
X83133829Y-59373338D01*
X83059175Y-58463559D01*
X83009872Y-57703020D01*
X82955377Y-56640812D01*
X83562977Y-56640812D01*
X83596391Y-57108191D01*
X83666137Y-57818228D01*
X83771470Y-58778433D01*
X83911646Y-59996315D01*
X83955237Y-60385802D01*
X84039864Y-61240734D01*
X84108058Y-62064153D01*
X84153723Y-62778196D01*
X84158877Y-62937549D01*
X84170761Y-63305000D01*
X84176223Y-63718694D01*
X84207239Y-64158731D01*
X84273055Y-64363144D01*
X84382065Y-64350791D01*
X84542660Y-64140526D01*
X84681401Y-63975223D01*
X84875607Y-63872115D01*
X85034002Y-63775732D01*
X85203159Y-63522961D01*
X85221975Y-63479320D01*
X85268304Y-63291646D01*
X85266513Y-63039810D01*
X85209769Y-62675726D01*
X85091239Y-62151310D01*
X84904089Y-61418477D01*
X84720113Y-60709027D01*
X84490497Y-59807090D01*
X84270797Y-58928839D01*
X84090586Y-58191579D01*
X83966938Y-57681010D01*
X83807527Y-57047721D01*
X83688169Y-56619548D01*
X83608122Y-56404000D01*
X83566639Y-56408585D01*
X83562977Y-56640812D01*
X82955377Y-56640812D01*
X82929939Y-56144987D01*
X82531943Y-56065388D01*
X82119929Y-56009874D01*
X81662283Y-55985789D01*
X81190619Y-55985789D01*
X80604124Y-55985789D01*
X80530034Y-55960255D01*
X80226907Y-55923352D01*
X79739307Y-55898126D01*
X79025790Y-55877977D01*
X77728848Y-55878692D01*
X76332482Y-55959340D01*
X74879962Y-56132085D01*
X73277369Y-56405547D01*
X72773170Y-56501644D01*
X72204347Y-56609319D01*
X71763802Y-56691870D01*
X71518683Y-56736657D01*
X71483825Y-56743687D01*
X71317310Y-56836674D01*
X71213514Y-57062783D01*
X71138538Y-57489113D01*
X71103258Y-57744368D01*
X70998562Y-58418825D01*
X70867558Y-59187128D01*
X70721585Y-59989621D01*
X70571985Y-60766648D01*
X70430097Y-61458551D01*
X70307261Y-62005676D01*
X70214819Y-62348366D01*
X70125684Y-62637498D01*
X70111279Y-62871404D01*
X68853305Y-62871404D01*
X68926841Y-62823002D01*
X69030214Y-62764045D01*
X69257178Y-62606709D01*
X69387280Y-62418778D01*
X69459334Y-62121565D01*
X69512151Y-61636386D01*
X69561328Y-61170593D01*
X69651457Y-60451768D01*
X69747458Y-59795789D01*
X69803693Y-59392246D01*
X69827567Y-58864685D01*
X69759118Y-58507757D01*
X69719352Y-58413381D01*
X69599558Y-58247814D01*
X69395116Y-58195920D01*
X69016590Y-58223457D01*
X68869681Y-58236968D01*
X68428980Y-58246972D01*
X68101435Y-58212999D01*
X67899207Y-58095462D01*
X67590575Y-57791016D01*
X67260783Y-57376915D01*
X66961385Y-56925246D01*
X66743939Y-56508096D01*
X66660000Y-56197551D01*
X66612684Y-55925583D01*
X66391086Y-55703176D01*
X66000213Y-55673638D01*
X65453300Y-55840883D01*
X64590828Y-56083239D01*
X63700285Y-56068047D01*
X62807279Y-55785798D01*
X62780530Y-55773375D01*
X62441952Y-55627876D01*
X62142342Y-55540710D01*
X61806697Y-55503038D01*
X83923735Y-55503038D01*
X83980912Y-55865802D01*
X84128591Y-56429971D01*
X84207831Y-56688433D01*
X84397818Y-57114610D01*
X84596486Y-57289859D01*
X84785987Y-57413897D01*
X84834896Y-57606544D01*
X84698325Y-57748979D01*
X84685257Y-57762094D01*
X84685561Y-57966296D01*
X84766624Y-58397917D01*
X84924025Y-59036441D01*
X85153346Y-59861354D01*
X85288803Y-60320412D01*
X85488031Y-60963027D01*
X85660286Y-61480305D01*
X85790658Y-61828167D01*
X85864232Y-61962536D01*
X86074603Y-61930142D01*
X86447052Y-61742705D01*
X86928139Y-61426521D01*
X87475173Y-61012092D01*
X88045461Y-60529922D01*
X88596313Y-60010511D01*
X89559712Y-58941041D01*
X90298146Y-57865458D01*
X90823588Y-56744216D01*
X91160249Y-55525525D01*
X91332340Y-54157590D01*
X91356591Y-53138121D01*
X91242516Y-51952358D01*
X90950514Y-50822033D01*
X90463028Y-49683563D01*
X89762496Y-48473369D01*
X89615297Y-48253156D01*
X89237442Y-47746585D01*
X88835154Y-47269911D01*
X88452573Y-46870628D01*
X88133840Y-46596230D01*
X87923094Y-46494210D01*
X87894104Y-46531908D01*
X87802581Y-46770974D01*
X87676512Y-47181672D01*
X87534158Y-47707062D01*
X87413930Y-48187645D01*
X87326395Y-48598018D01*
X87303542Y-48856847D01*
X87341387Y-49022838D01*
X87435949Y-49154694D01*
X87546728Y-49295697D01*
X87638737Y-49476843D01*
X87622820Y-49553876D01*
X87488000Y-49462000D01*
X87468502Y-49442980D01*
X87233470Y-49313169D01*
X87021307Y-49420445D01*
X86802019Y-49778655D01*
X86665816Y-50141882D01*
X86679634Y-50414130D01*
X86888690Y-50504737D01*
X86992469Y-50528479D01*
X87292722Y-50649610D01*
X87676783Y-50838947D01*
X87914615Y-50956246D01*
X88306293Y-51112104D01*
X88578087Y-51173158D01*
X88739349Y-51199043D01*
X88851579Y-51306842D01*
X88843690Y-51316654D01*
X88784262Y-51390568D01*
X88548160Y-51440526D01*
X88537985Y-51440829D01*
X88274339Y-51527095D01*
X87888328Y-51737061D01*
X87459729Y-52027690D01*
X87342545Y-52113393D01*
X86641705Y-52527744D01*
X86000437Y-52715272D01*
X85374142Y-52690144D01*
X85165929Y-52678484D01*
X84889395Y-52829047D01*
X84757121Y-53191204D01*
X84776587Y-53751669D01*
X84798369Y-53943758D01*
X84763681Y-54509098D01*
X84573862Y-54916884D01*
X84244202Y-55127601D01*
X84099273Y-55174581D01*
X83961656Y-55289894D01*
X83923735Y-55503038D01*
X61806697Y-55503038D01*
X61805352Y-55502887D01*
X61354631Y-55505418D01*
X60713829Y-55539312D01*
X60340609Y-55561637D01*
X59832790Y-55582519D01*
X59476097Y-55568109D01*
X59196030Y-55506380D01*
X58918088Y-55385305D01*
X58567773Y-55192857D01*
X57804024Y-54761824D01*
X56962317Y-54989664D01*
X56572167Y-55083201D01*
X56005225Y-55144795D01*
X55488415Y-55069930D01*
X54940913Y-54842187D01*
X54281895Y-54445146D01*
X54117495Y-54337125D01*
X54032569Y-54282452D01*
X83504211Y-54282452D01*
X83506166Y-54314598D01*
X83621604Y-54482765D01*
X83819371Y-54500333D01*
X83965156Y-54348158D01*
X83981040Y-54285955D01*
X84037995Y-53987491D01*
X84100306Y-53587369D01*
X84162977Y-53332407D01*
X84366705Y-52800369D01*
X84673212Y-52144993D01*
X85463449Y-52144993D01*
X85530347Y-52258360D01*
X85738674Y-52333324D01*
X86080714Y-52374268D01*
X86318962Y-52364317D01*
X86372013Y-52281228D01*
X86238318Y-52051069D01*
X86219942Y-52022524D01*
X86099412Y-51725476D01*
X86173097Y-51449491D01*
X86255003Y-51337441D01*
X86545696Y-51186765D01*
X86869604Y-51221405D01*
X87114594Y-51442225D01*
X87130626Y-51471364D01*
X87290364Y-51633008D01*
X87520350Y-51571206D01*
X87678341Y-51463295D01*
X87782106Y-51316654D01*
X87714623Y-51236488D01*
X87468111Y-51092470D01*
X87126324Y-50940778D01*
X86780516Y-50820845D01*
X86521941Y-50772105D01*
X86378295Y-50851791D01*
X86128464Y-51100085D01*
X85843676Y-51458302D01*
X85752798Y-51586589D01*
X85531533Y-51936561D01*
X85463449Y-52144993D01*
X84673212Y-52144993D01*
X84687604Y-52114219D01*
X85107598Y-51314737D01*
X85499692Y-50594912D01*
X85957508Y-49723845D01*
X86313011Y-48997514D01*
X86588519Y-48367084D01*
X86806353Y-47783723D01*
X86988830Y-47198596D01*
X87060979Y-46945385D01*
X87189993Y-46460543D01*
X87232110Y-46177695D01*
X87178227Y-46057407D01*
X87019242Y-46060244D01*
X86746053Y-46146771D01*
X86682380Y-46168968D01*
X86431517Y-46276907D01*
X86289539Y-46424897D01*
X86211529Y-46688292D01*
X86152571Y-47142447D01*
X86145315Y-47197490D01*
X86101648Y-47528764D01*
X85897698Y-48524990D01*
X85573918Y-49575921D01*
X85113320Y-50731892D01*
X84498922Y-52043242D01*
X84260543Y-52530868D01*
X83959709Y-53168296D01*
X83720015Y-53702779D01*
X83561502Y-54089203D01*
X83504211Y-54282452D01*
X54032569Y-54282452D01*
X53703073Y-54070333D01*
X53430215Y-53921631D01*
X53235067Y-53870710D01*
X53053779Y-53897261D01*
X52822498Y-53980977D01*
X52664249Y-54035848D01*
X52518546Y-54035742D01*
X52513931Y-53885415D01*
X52525104Y-53844312D01*
X52723745Y-53574536D01*
X53081358Y-53315776D01*
X53508873Y-53121389D01*
X53917222Y-53044737D01*
X53951968Y-53045288D01*
X54402204Y-53109308D01*
X54854514Y-53247330D01*
X54931255Y-53277502D01*
X55508602Y-53386042D01*
X56138180Y-53292546D01*
X56849779Y-52988760D01*
X57673187Y-52466431D01*
X57786924Y-52386293D01*
X58035412Y-52231527D01*
X58281323Y-52134440D01*
X58592143Y-52080969D01*
X59035357Y-52057056D01*
X59678450Y-52048639D01*
X59924057Y-52046066D01*
X60560617Y-52024356D01*
X61029205Y-51973486D01*
X61405229Y-51882282D01*
X61764099Y-51739568D01*
X62404497Y-51516327D01*
X63158263Y-51463591D01*
X63964080Y-51646193D01*
X64295797Y-51742991D01*
X64609846Y-51771983D01*
X64963174Y-51719072D01*
X65423469Y-51573916D01*
X66058421Y-51326171D01*
X66314319Y-51223907D01*
X66704945Y-51074189D01*
X66956087Y-50986255D01*
X67066737Y-50931515D01*
X67095882Y-50812673D01*
X67025129Y-50572796D01*
X66846605Y-50151869D01*
X66708698Y-49803976D01*
X66533331Y-49242986D01*
X66434602Y-48767240D01*
X66415898Y-48594099D01*
X66417276Y-48265053D01*
X66527153Y-48036188D01*
X66788288Y-47789265D01*
X66801282Y-47778452D01*
X67212574Y-47527406D01*
X67606047Y-47430000D01*
X67730006Y-47440363D01*
X68116424Y-47594381D01*
X68413065Y-47875268D01*
X68531579Y-48208690D01*
X68576574Y-48478019D01*
X68699808Y-48920427D01*
X68873154Y-49449075D01*
X69068425Y-49982868D01*
X69257432Y-50440713D01*
X69411988Y-50741517D01*
X69545958Y-50912976D01*
X69755793Y-51008916D01*
X70099918Y-50975641D01*
X70110694Y-50973582D01*
X70536013Y-50848753D01*
X70895956Y-50676652D01*
X70938154Y-50648643D01*
X71052506Y-50556134D01*
X71125577Y-50435086D01*
X71156625Y-50246350D01*
X71144906Y-49950780D01*
X71089676Y-49509226D01*
X70990191Y-48882542D01*
X70845708Y-48031579D01*
X70819955Y-47885280D01*
X70677874Y-47231084D01*
X70520972Y-46784277D01*
X70332333Y-46494210D01*
X70256891Y-46399521D01*
X70031298Y-46044353D01*
X69762710Y-45553916D01*
X69715001Y-45456345D01*
X71370054Y-45456345D01*
X71376462Y-45924783D01*
X71409852Y-46536933D01*
X71467741Y-47354168D01*
X71495351Y-47707391D01*
X71570182Y-48526675D01*
X71654284Y-49299790D01*
X71739262Y-49953161D01*
X71816725Y-50413213D01*
X71909703Y-50899176D01*
X71980346Y-51354127D01*
X72007369Y-51649792D01*
X72008729Y-51762236D01*
X72040720Y-51909375D01*
X72158540Y-51953039D01*
X72418351Y-51900216D01*
X72876316Y-51757892D01*
X73134818Y-51687941D01*
X73950300Y-51572101D01*
X74934700Y-51545579D01*
X76029763Y-51604018D01*
X77177231Y-51743061D01*
X78318851Y-51958350D01*
X79396366Y-52245530D01*
X79812050Y-52369937D01*
X80185727Y-52469468D01*
X80389995Y-52508275D01*
X80465014Y-52478707D01*
X80489629Y-52433561D01*
X81343297Y-52433561D01*
X81350314Y-52845271D01*
X81420592Y-53080739D01*
X81574664Y-53217261D01*
X81612705Y-53239920D01*
X81896963Y-53453108D01*
X82211073Y-53737628D01*
X82232597Y-53758936D01*
X82563394Y-54037544D01*
X82766156Y-54101462D01*
X82830294Y-53947105D01*
X82874200Y-53808909D01*
X83022100Y-53464701D01*
X83255701Y-52960953D01*
X83555679Y-52339219D01*
X83902711Y-51641052D01*
X84075852Y-51291793D01*
X84476109Y-50440921D01*
X84832105Y-49625452D01*
X85115601Y-48911652D01*
X85298361Y-48365789D01*
X85363540Y-48129698D01*
X85486989Y-47662043D01*
X85566246Y-47331295D01*
X85586505Y-47197490D01*
X85555600Y-47197292D01*
X85344734Y-47257727D01*
X85007443Y-47381343D01*
X84582302Y-47504393D01*
X84081356Y-47497108D01*
X83704737Y-47397035D01*
X84038948Y-47291527D01*
X84300542Y-47215282D01*
X84707369Y-47113288D01*
X84956827Y-47028930D01*
X85308948Y-46827755D01*
X85329256Y-46811562D01*
X85466830Y-46693623D01*
X85414799Y-46697383D01*
X85148481Y-46821949D01*
X85138378Y-46826792D01*
X84738965Y-46969733D01*
X84375503Y-47028947D01*
X84271626Y-47024599D01*
X83755299Y-46905247D01*
X83267477Y-46663690D01*
X82927475Y-46355426D01*
X82716848Y-46054714D01*
X82629663Y-46441568D01*
X82566855Y-46688000D01*
X82441922Y-47142650D01*
X82276773Y-47724432D01*
X82090344Y-48365789D01*
X81950539Y-48855393D01*
X81635911Y-50132007D01*
X81438936Y-51275313D01*
X81346202Y-52357264D01*
X81343297Y-52433561D01*
X80489629Y-52433561D01*
X80551709Y-52319698D01*
X80623734Y-51993335D01*
X80687750Y-51466297D01*
X80750418Y-50705263D01*
X80814303Y-50224304D01*
X80949903Y-49545727D01*
X81137538Y-48772687D01*
X81359001Y-47986532D01*
X81378235Y-47923107D01*
X81590735Y-47206998D01*
X81735980Y-46654264D01*
X81826677Y-46179904D01*
X81875530Y-45698917D01*
X81895246Y-45126302D01*
X81898529Y-44377058D01*
X81898266Y-44258931D01*
X81889865Y-43543245D01*
X81871544Y-42892008D01*
X81845737Y-42372857D01*
X81814879Y-42053425D01*
X81732701Y-41556324D01*
X81178055Y-41881368D01*
X80784988Y-42080793D01*
X79918089Y-42381461D01*
X78990609Y-42560949D01*
X78130327Y-42589566D01*
X77796326Y-42569300D01*
X77519045Y-42576338D01*
X77413765Y-42636919D01*
X77425882Y-42764610D01*
X77443509Y-42900220D01*
X77360175Y-43081902D01*
X77232836Y-43226141D01*
X77313302Y-43429893D01*
X77647796Y-43682921D01*
X77828273Y-43789815D01*
X78045272Y-43871994D01*
X78256728Y-43828934D01*
X78581739Y-43657378D01*
X78591788Y-43651738D01*
X78935143Y-43483199D01*
X79172832Y-43453201D01*
X79415538Y-43547107D01*
X79517524Y-43597715D01*
X79715449Y-43638214D01*
X79929714Y-43548811D01*
X80249949Y-43303318D01*
X80397306Y-43186423D01*
X80737028Y-42960464D01*
X80954919Y-42880665D01*
X81020914Y-42952602D01*
X80904949Y-43181850D01*
X80769860Y-43423900D01*
X80696839Y-43683166D01*
X80651174Y-43834443D01*
X80425008Y-44106926D01*
X80087642Y-44361434D01*
X79727348Y-44536118D01*
X79432397Y-44569129D01*
X79222612Y-44550559D01*
X79043923Y-44690425D01*
X78967866Y-44794471D01*
X78722619Y-44890000D01*
X78599663Y-44910034D01*
X78519808Y-45044845D01*
X78533721Y-45368163D01*
X78537672Y-45392035D01*
X78561621Y-45536726D01*
X78714318Y-45851195D01*
X78983866Y-45926640D01*
X79380696Y-45767987D01*
X79609199Y-45646086D01*
X79804570Y-45613995D01*
X80047932Y-45689148D01*
X80432808Y-45881650D01*
X80705795Y-46015978D01*
X81069777Y-46167770D01*
X81295961Y-46226842D01*
X81460301Y-46255620D01*
X81482550Y-46368534D01*
X81298867Y-46539055D01*
X80930790Y-46737090D01*
X80821310Y-46785089D01*
X80488105Y-46903431D01*
X80245440Y-46904712D01*
X79976796Y-46796143D01*
X79832185Y-46728877D01*
X79551305Y-46672959D01*
X79266704Y-46775737D01*
X79214981Y-46802544D01*
X78934606Y-46881592D01*
X78670311Y-46779321D01*
X78485282Y-46681273D01*
X78352006Y-46655538D01*
X78326490Y-46687136D01*
X78184197Y-46885461D01*
X77972703Y-47192608D01*
X77639567Y-47683510D01*
X77906892Y-48023359D01*
X77920345Y-48040764D01*
X78074759Y-48310077D01*
X78092568Y-48495318D01*
X78083516Y-48520360D01*
X78133097Y-48733503D01*
X78305415Y-49025757D01*
X78409698Y-49176102D01*
X78513588Y-49425710D01*
X78446379Y-49609079D01*
X78378002Y-49721733D01*
X78380809Y-49882037D01*
X78374468Y-49936670D01*
X78188672Y-49970000D01*
X78166327Y-49969378D01*
X77862878Y-49869368D01*
X77600327Y-49658137D01*
X77488421Y-49421630D01*
X77466666Y-49363961D01*
X77299196Y-49152658D01*
X77020527Y-48882593D01*
X76884307Y-48754446D01*
X76646676Y-48475666D01*
X76552632Y-48275296D01*
X76517578Y-48173179D01*
X76321569Y-48123315D01*
X76243362Y-48155515D01*
X76091129Y-48378876D01*
X75978871Y-48834959D01*
X75932557Y-49052627D01*
X75787844Y-49480037D01*
X75618320Y-49769473D01*
X75612007Y-49776387D01*
X75426359Y-50101905D01*
X75322760Y-50504737D01*
X75276118Y-50972631D01*
X74949532Y-50332661D01*
X74936257Y-50306553D01*
X74756103Y-49906371D01*
X74708189Y-49645695D01*
X74777197Y-49445697D01*
X74850379Y-49260442D01*
X74857562Y-48916167D01*
X74868395Y-48628430D01*
X75013834Y-48282367D01*
X75104301Y-48135054D01*
X75164781Y-47938756D01*
X75062785Y-47816283D01*
X74880242Y-47721843D01*
X74724417Y-47757712D01*
X74681053Y-48029032D01*
X74622635Y-48280988D01*
X74370615Y-48438610D01*
X74125731Y-48586078D01*
X73901650Y-48954923D01*
X73708353Y-49283381D01*
X73425174Y-49532396D01*
X73130420Y-49646355D01*
X72899243Y-49578506D01*
X72845988Y-49443238D01*
X72986422Y-49193948D01*
X72991244Y-49188514D01*
X73146281Y-48879307D01*
X73210527Y-48487683D01*
X73255908Y-48153304D01*
X73466882Y-47868955D01*
X73612429Y-47732070D01*
X73651630Y-47435033D01*
X73638067Y-47249205D01*
X73733437Y-46976355D01*
X73812695Y-46767600D01*
X73747841Y-46460518D01*
X73546901Y-46201900D01*
X73263800Y-46093158D01*
X73061010Y-46063368D01*
X72869118Y-45947827D01*
X72775980Y-45878166D01*
X72526530Y-45868597D01*
X72419224Y-45882652D01*
X72093410Y-45769893D01*
X71818812Y-45464956D01*
X71806239Y-45431466D01*
X74547369Y-45431466D01*
X74571090Y-45756540D01*
X74702884Y-46090077D01*
X75001895Y-46440737D01*
X75239783Y-46641242D01*
X75735878Y-46852288D01*
X76223004Y-46812380D01*
X76663161Y-46529599D01*
X77018349Y-46012023D01*
X77138466Y-45721612D01*
X77180348Y-45392035D01*
X77092506Y-44988114D01*
X77014607Y-44770392D01*
X76726550Y-44279350D01*
X76358428Y-43944397D01*
X75963420Y-43820526D01*
X75389254Y-43927490D01*
X74935987Y-44247999D01*
X74648135Y-44757542D01*
X74547369Y-45431466D01*
X71806239Y-45431466D01*
X71653151Y-45023684D01*
X71640421Y-44955173D01*
X71604540Y-44694666D01*
X71655163Y-44646800D01*
X71819854Y-44769558D01*
X71850602Y-44793077D01*
X72218851Y-44934265D01*
X72761105Y-44987833D01*
X73138881Y-44984061D01*
X73364707Y-44935500D01*
X73468254Y-44795040D01*
X73525319Y-44515869D01*
X73531390Y-44092148D01*
X73339741Y-43445075D01*
X73289669Y-43323469D01*
X73139576Y-42789512D01*
X73083433Y-42264410D01*
X73124357Y-41827414D01*
X73265467Y-41557772D01*
X73310242Y-41524569D01*
X73495558Y-41498076D01*
X73587049Y-41677856D01*
X73556022Y-42018423D01*
X73535812Y-42135305D01*
X73600206Y-42379668D01*
X73866468Y-42629280D01*
X73903310Y-42657347D01*
X74174673Y-42918894D01*
X74319127Y-43153604D01*
X74326243Y-43175954D01*
X74493412Y-43317258D01*
X74761735Y-43322453D01*
X75026252Y-43210284D01*
X75182003Y-42999498D01*
X75238031Y-42861651D01*
X75365066Y-42751052D01*
X75442702Y-42668155D01*
X75483158Y-42416842D01*
X75441572Y-42196786D01*
X75316053Y-42082526D01*
X75188608Y-42063595D01*
X74813906Y-41928865D01*
X74350526Y-41703626D01*
X73882297Y-41434256D01*
X73493045Y-41167133D01*
X73266595Y-40948635D01*
X73161040Y-40799649D01*
X73009593Y-40687594D01*
X72861361Y-40771192D01*
X72728651Y-40959720D01*
X72515073Y-41385908D01*
X72272960Y-41965663D01*
X72024957Y-42640239D01*
X71793707Y-43350891D01*
X71601852Y-44038872D01*
X71537550Y-44299543D01*
X71448116Y-44705099D01*
X71393111Y-45070242D01*
X71370054Y-45456345D01*
X69715001Y-45456345D01*
X69494140Y-45004651D01*
X69468206Y-44948269D01*
X69214264Y-44416608D01*
X68996703Y-44046690D01*
X68750477Y-43761927D01*
X68410545Y-43485730D01*
X67911864Y-43141509D01*
X67779391Y-43050515D01*
X67183065Y-42606792D01*
X66594157Y-42123446D01*
X66123016Y-41690016D01*
X65925018Y-41486165D01*
X65617598Y-41128396D01*
X65393081Y-40771021D01*
X65258752Y-40458987D01*
X73210527Y-40458987D01*
X74280286Y-40871530D01*
X74355257Y-40900239D01*
X74980979Y-41127852D01*
X75610636Y-41339744D01*
X76118444Y-41493363D01*
X76453749Y-41565676D01*
X77069467Y-41651489D01*
X77790673Y-41716501D01*
X78543366Y-41757085D01*
X79253544Y-41769611D01*
X79847207Y-41750451D01*
X80250353Y-41695976D01*
X80317416Y-41677198D01*
X80743633Y-41522751D01*
X81180878Y-41322915D01*
X81349156Y-41230274D01*
X81585684Y-41040315D01*
X81725945Y-40773122D01*
X81832079Y-40334362D01*
X81906040Y-39912114D01*
X81899421Y-39639173D01*
X81785119Y-39407836D01*
X81536554Y-39107772D01*
X81391862Y-38931334D01*
X81257272Y-38732636D01*
X81900000Y-38732636D01*
X81905100Y-38770143D01*
X82033685Y-38941052D01*
X82102560Y-38953629D01*
X82167369Y-38815258D01*
X82151008Y-38715656D01*
X82033685Y-38606842D01*
X82001967Y-38610442D01*
X81900000Y-38732636D01*
X81257272Y-38732636D01*
X81180853Y-38619818D01*
X81097895Y-38411297D01*
X81024502Y-38299171D01*
X80773764Y-38146488D01*
X80441507Y-38017511D01*
X80129702Y-37950062D01*
X79940320Y-37981961D01*
X79859920Y-38212592D01*
X79892829Y-38625916D01*
X80036704Y-39151718D01*
X80279623Y-39728625D01*
X80282474Y-39734381D01*
X80476060Y-40147097D01*
X80600310Y-40454845D01*
X80628442Y-40591383D01*
X80546486Y-40598203D01*
X80307071Y-40489830D01*
X79995085Y-40283039D01*
X79684548Y-40028873D01*
X79449477Y-39778375D01*
X79446469Y-39774318D01*
X79228868Y-39292168D01*
X79117472Y-38575217D01*
X79072863Y-38176299D01*
X78995598Y-37815907D01*
X78908285Y-37639678D01*
X78857160Y-37619167D01*
X78577405Y-37577157D01*
X78141952Y-37551457D01*
X77621249Y-37541693D01*
X77085747Y-37547493D01*
X76605894Y-37568485D01*
X76252139Y-37604297D01*
X76094933Y-37654555D01*
X76084534Y-37676697D01*
X76087759Y-37935910D01*
X76194288Y-38347168D01*
X76378744Y-38841121D01*
X76615751Y-39348425D01*
X76879931Y-39799730D01*
X77082977Y-40119963D01*
X77219510Y-40379039D01*
X77232070Y-40478421D01*
X77164806Y-40455346D01*
X76921421Y-40315023D01*
X76590748Y-40089611D01*
X76355843Y-39882774D01*
X75992941Y-39444822D01*
X75669853Y-38934250D01*
X75438167Y-38436385D01*
X75349474Y-38036559D01*
X75348886Y-38016170D01*
X75250040Y-37843546D01*
X75036909Y-37829368D01*
X74789073Y-37955997D01*
X74586107Y-38205789D01*
X74476944Y-38551451D01*
X74422077Y-39062188D01*
X74446301Y-39571215D01*
X74552072Y-39952472D01*
X74612716Y-40114886D01*
X74572792Y-40211052D01*
X74560253Y-40210346D01*
X74350226Y-40078695D01*
X74088582Y-39756990D01*
X73819902Y-39299224D01*
X73732971Y-39149124D01*
X73534121Y-38967489D01*
X73367555Y-39029414D01*
X73253086Y-39318076D01*
X73210527Y-39816652D01*
X73210527Y-40458987D01*
X65258752Y-40458987D01*
X65202134Y-40327467D01*
X64995429Y-39711161D01*
X64864998Y-39308289D01*
X64694264Y-38847355D01*
X64533598Y-38541193D01*
X64346870Y-38326563D01*
X64097949Y-38140222D01*
X63682458Y-37784726D01*
X63352752Y-37299430D01*
X63255347Y-37053949D01*
X74993847Y-37053949D01*
X75066326Y-37136315D01*
X75105539Y-37131324D01*
X75282632Y-37002631D01*
X75304048Y-36951314D01*
X75290387Y-36935789D01*
X75500023Y-36935789D01*
X77129222Y-36948707D01*
X77276137Y-36951314D01*
X77856304Y-36961609D01*
X78428401Y-36996348D01*
X78906413Y-37065588D01*
X79378268Y-37182205D01*
X79931895Y-37359072D01*
X81105368Y-37756520D01*
X81068210Y-37190260D01*
X81057146Y-37041981D01*
X80997082Y-36746669D01*
X80835885Y-36588602D01*
X80496316Y-36470581D01*
X80395995Y-36441795D01*
X80004016Y-36329265D01*
X79727736Y-36249869D01*
X79515778Y-36284706D01*
X79332868Y-36559182D01*
X79171844Y-36935789D01*
X79124985Y-36517630D01*
X79071340Y-36260471D01*
X78918022Y-36102575D01*
X78584063Y-36017785D01*
X78541037Y-36010737D01*
X77985204Y-35942696D01*
X77602759Y-35967440D01*
X77315121Y-36102755D01*
X77043714Y-36366426D01*
X76665848Y-36802105D01*
X76743803Y-36441121D01*
X76780397Y-36204868D01*
X76700896Y-36138175D01*
X76436208Y-36214541D01*
X76116571Y-36374358D01*
X75775341Y-36642366D01*
X75500023Y-36935789D01*
X75290387Y-36935789D01*
X75231569Y-36868947D01*
X75192357Y-36873938D01*
X75015263Y-37002631D01*
X74993847Y-37053949D01*
X63255347Y-37053949D01*
X63091872Y-36641959D01*
X62875518Y-35765099D01*
X62816643Y-35492215D01*
X62604380Y-34782335D01*
X62332992Y-34284844D01*
X61974198Y-33958580D01*
X61499720Y-33762376D01*
X61268886Y-33691675D01*
X61008229Y-33555814D01*
X61005946Y-33435472D01*
X61256060Y-33341907D01*
X61752590Y-33286375D01*
X61824404Y-33282832D01*
X62481347Y-33288416D01*
X63030959Y-33391293D01*
X63540107Y-33620668D01*
X64075653Y-34005746D01*
X64704462Y-34575734D01*
X65086685Y-34935359D01*
X65419656Y-35229764D01*
X65631237Y-35393707D01*
X65687067Y-35398421D01*
X65666012Y-35347083D01*
X65546403Y-35066553D01*
X65360216Y-34636966D01*
X65137769Y-34128421D01*
X65070174Y-33970259D01*
X64801127Y-33277975D01*
X64531497Y-32504300D01*
X64310680Y-31788947D01*
X64152991Y-31271738D01*
X63980226Y-30835927D01*
X64685344Y-30835927D01*
X64703095Y-31095284D01*
X64822852Y-31432923D01*
X64936791Y-31647281D01*
X65040014Y-31739889D01*
X65120923Y-31627985D01*
X65213097Y-31482970D01*
X65565631Y-31216276D01*
X66091198Y-30997453D01*
X66727255Y-30849260D01*
X67411265Y-30794460D01*
X67540114Y-30794171D01*
X67977646Y-30784799D01*
X68205346Y-30752286D01*
X68270322Y-30683214D01*
X68219680Y-30564162D01*
X67953663Y-30286450D01*
X67429321Y-30065689D01*
X66722170Y-30009227D01*
X66297960Y-30060593D01*
X65766255Y-30198338D01*
X65270234Y-30390820D01*
X64886288Y-30607613D01*
X64690811Y-30818291D01*
X64685344Y-30835927D01*
X63980226Y-30835927D01*
X63871913Y-30562700D01*
X63588178Y-30117894D01*
X63438245Y-29943268D01*
X63111143Y-29524042D01*
X62796116Y-29081842D01*
X62601669Y-28817084D01*
X62356963Y-28550203D01*
X62189460Y-28446842D01*
X62126928Y-28439957D01*
X61954783Y-28290807D01*
X61926542Y-28009549D01*
X61954143Y-27939517D01*
X62566145Y-27939517D01*
X62607419Y-27997763D01*
X62723770Y-28099702D01*
X62944354Y-28377081D01*
X63199265Y-28755894D01*
X63399056Y-29064610D01*
X63681100Y-29470052D01*
X63899623Y-29750263D01*
X63977515Y-29835712D01*
X64154508Y-29980161D01*
X64349170Y-30006261D01*
X64633544Y-29910229D01*
X65079677Y-29688282D01*
X65138254Y-29658721D01*
X65835521Y-29414904D01*
X66717308Y-29286905D01*
X66886701Y-29273662D01*
X67378048Y-29215349D01*
X67643454Y-29110309D01*
X67704421Y-28913264D01*
X67582455Y-28578941D01*
X67299060Y-28062062D01*
X67110560Y-27710955D01*
X66839918Y-27140643D01*
X66640014Y-26642105D01*
X66578412Y-26465451D01*
X66473755Y-26206224D01*
X66420540Y-26174629D01*
X66402007Y-26350104D01*
X66428696Y-26653663D01*
X66449080Y-26719688D01*
X66531020Y-26985104D01*
X66563073Y-27052778D01*
X66555944Y-27219600D01*
X66336311Y-27234188D01*
X65900019Y-27097283D01*
X65551297Y-26991767D01*
X65185620Y-26928635D01*
X64902257Y-26921794D01*
X64788421Y-26980414D01*
X64784471Y-26991757D01*
X64630040Y-27050925D01*
X64320527Y-27084268D01*
X64226607Y-27086732D01*
X63927323Y-27060021D01*
X63878111Y-26961358D01*
X64070084Y-26779944D01*
X64089671Y-26765262D01*
X64215248Y-26588831D01*
X64136926Y-26339521D01*
X64036052Y-26044868D01*
X63986316Y-25648262D01*
X63986246Y-25635751D01*
X63982605Y-25613554D01*
X64566260Y-25613554D01*
X64587784Y-26007105D01*
X64651047Y-26430310D01*
X64732630Y-26646479D01*
X64863939Y-26667512D01*
X65079398Y-26530027D01*
X65119700Y-26496882D01*
X65200952Y-26382487D01*
X65219542Y-26206911D01*
X65168430Y-25922580D01*
X65095535Y-25671342D01*
X65606131Y-25671342D01*
X65633787Y-25928153D01*
X65699538Y-26206911D01*
X65731240Y-26341315D01*
X65761028Y-26439126D01*
X65887786Y-26726875D01*
X66006872Y-26842631D01*
X66020594Y-26841564D01*
X66078826Y-26719688D01*
X66001134Y-26388983D01*
X65785431Y-25840000D01*
X65746419Y-25754325D01*
X65644824Y-25602770D01*
X65606131Y-25671342D01*
X65095535Y-25671342D01*
X65040577Y-25481924D01*
X64828944Y-24837368D01*
X64793905Y-24760187D01*
X64713318Y-24751978D01*
X64640720Y-24929277D01*
X64587803Y-25235374D01*
X64566260Y-25613554D01*
X63982605Y-25613554D01*
X63940151Y-25354703D01*
X63834416Y-25238421D01*
X63793692Y-25265971D01*
X63736841Y-25487814D01*
X63717913Y-25878519D01*
X63732396Y-26373444D01*
X63775781Y-26907949D01*
X63843558Y-27417392D01*
X63931217Y-27837133D01*
X64034248Y-28102532D01*
X64113819Y-28226166D01*
X64232373Y-28461743D01*
X64174256Y-28560508D01*
X63926362Y-28580526D01*
X63897039Y-28579305D01*
X63569649Y-28472645D01*
X63238420Y-28246315D01*
X63194940Y-28207443D01*
X62898510Y-28001143D01*
X62663374Y-27922659D01*
X62566145Y-27939517D01*
X61954143Y-27939517D01*
X62056627Y-27679489D01*
X62142460Y-27562268D01*
X62371776Y-27408302D01*
X62726320Y-27403908D01*
X63180689Y-27456953D01*
X63171379Y-26263269D01*
X63170407Y-26025407D01*
X63189845Y-25452436D01*
X63269742Y-25065550D01*
X63444494Y-24803799D01*
X63748497Y-24606230D01*
X64216148Y-24411893D01*
X64337202Y-24366374D01*
X64775812Y-24220636D01*
X65039542Y-24191589D01*
X65184866Y-24284129D01*
X65268262Y-24503158D01*
X65388443Y-24743501D01*
X65662853Y-24837368D01*
X65863785Y-24880170D01*
X66061008Y-25112886D01*
X66187013Y-25318679D01*
X66464415Y-25532365D01*
X66499395Y-25550208D01*
X66775055Y-25824597D01*
X66980460Y-26245982D01*
X67061053Y-26706957D01*
X67106508Y-26860336D01*
X67282634Y-27180450D01*
X67546010Y-27554902D01*
X67546282Y-27555251D01*
X67932689Y-28178951D01*
X68148227Y-28805025D01*
X68148240Y-28805096D01*
X68181958Y-28913264D01*
X68292519Y-29267940D01*
X68577309Y-29791777D01*
X69033533Y-30433488D01*
X69186533Y-30636317D01*
X69220751Y-30683214D01*
X69589463Y-31188554D01*
X70069608Y-31864042D01*
X70579477Y-32595612D01*
X71071579Y-33316093D01*
X71107688Y-33369571D01*
X71574403Y-34053063D01*
X71923921Y-34542860D01*
X72181642Y-34868377D01*
X72372966Y-35059031D01*
X72523292Y-35144240D01*
X72658020Y-35153419D01*
X72760339Y-35154695D01*
X73106223Y-35296690D01*
X73488058Y-35597384D01*
X73841217Y-35998991D01*
X74101075Y-36443727D01*
X74245031Y-36705684D01*
X74426143Y-36817798D01*
X74589084Y-36667356D01*
X74724728Y-36257089D01*
X74779999Y-36034934D01*
X74864891Y-35730475D01*
X75606587Y-35730475D01*
X75611158Y-35884689D01*
X75745109Y-35874707D01*
X76017895Y-35732631D01*
X76295447Y-35604421D01*
X76569684Y-35536842D01*
X76705071Y-35506078D01*
X76868394Y-35392224D01*
X79092632Y-35392224D01*
X79194747Y-35493980D01*
X79460263Y-35594019D01*
X79495113Y-35603441D01*
X79822500Y-35724454D01*
X80273317Y-35923270D01*
X80773679Y-36163382D01*
X81249697Y-36408284D01*
X81627486Y-36621470D01*
X81833158Y-36766433D01*
X81863370Y-36852952D01*
X81666053Y-36832807D01*
X81634341Y-36825420D01*
X81456321Y-36818724D01*
X81380895Y-36950322D01*
X81365263Y-37284480D01*
X81384689Y-37587654D01*
X81462560Y-37756520D01*
X81505753Y-37850185D01*
X81799737Y-38073570D01*
X81868563Y-38114500D01*
X82174803Y-38272400D01*
X82367895Y-38334099D01*
X82386349Y-38329610D01*
X82573882Y-38208068D01*
X82883867Y-37954643D01*
X83259638Y-37615028D01*
X83731949Y-37214403D01*
X84243995Y-36849124D01*
X84683768Y-36599305D01*
X85102291Y-36380604D01*
X85384349Y-36130764D01*
X85588860Y-35773432D01*
X85778082Y-35230750D01*
X85855969Y-34908249D01*
X85828178Y-34616567D01*
X85650793Y-34274458D01*
X85423170Y-33959866D01*
X84812244Y-33354951D01*
X84030521Y-32784612D01*
X83141371Y-32282477D01*
X82208166Y-31882174D01*
X81294276Y-31617332D01*
X80463073Y-31521579D01*
X80348623Y-31524548D01*
X80179267Y-31568394D01*
X80054213Y-31707931D01*
X79935587Y-31997336D01*
X79785513Y-32490789D01*
X79645201Y-32994613D01*
X79487826Y-33598642D01*
X79338301Y-34205665D01*
X79212206Y-34750434D01*
X79125122Y-35167703D01*
X79092632Y-35392224D01*
X76868394Y-35392224D01*
X76951344Y-35334399D01*
X76970219Y-35304943D01*
X77023662Y-35164473D01*
X77619409Y-35164473D01*
X77633365Y-35199218D01*
X77804761Y-35259775D01*
X78081546Y-35257214D01*
X78349514Y-35200258D01*
X78494459Y-35097631D01*
X78498426Y-35086295D01*
X78563891Y-34869050D01*
X78681968Y-34455767D01*
X78837218Y-33901043D01*
X79014205Y-33259473D01*
X79034867Y-33184177D01*
X79214155Y-32539457D01*
X79373883Y-31979421D01*
X79497337Y-31561883D01*
X79567802Y-31344656D01*
X79601789Y-31205987D01*
X79508724Y-31134112D01*
X79210965Y-31144129D01*
X79099197Y-31156832D01*
X79000158Y-31187368D01*
X78859282Y-31230803D01*
X78712431Y-31416435D01*
X78585705Y-31788947D01*
X78529525Y-31983020D01*
X78489976Y-32118085D01*
X78384274Y-32479070D01*
X78203867Y-33090565D01*
X78014851Y-33727368D01*
X77892734Y-34142709D01*
X77750805Y-34641804D01*
X77654340Y-35001862D01*
X77619409Y-35164473D01*
X77023662Y-35164473D01*
X77064865Y-35056175D01*
X77186028Y-34636361D01*
X77320030Y-34106829D01*
X77453194Y-33528907D01*
X77571842Y-32963924D01*
X77662298Y-32473207D01*
X77710884Y-32118085D01*
X77703922Y-31959886D01*
X77677076Y-31951936D01*
X77479607Y-32013218D01*
X77176971Y-32175933D01*
X76903207Y-32379535D01*
X76666817Y-32675392D01*
X76476854Y-33102221D01*
X76295034Y-33727368D01*
X76201800Y-34047026D01*
X76027578Y-34566875D01*
X75830820Y-35097631D01*
X75721939Y-35379968D01*
X75606587Y-35730475D01*
X74864891Y-35730475D01*
X74913349Y-35556683D01*
X75089943Y-34960277D01*
X75286529Y-34325656D01*
X75382457Y-34017022D01*
X75629397Y-33181290D01*
X75873264Y-32308230D01*
X76072970Y-31543214D01*
X76174314Y-31187368D01*
X77354737Y-31187368D01*
X77421579Y-31254210D01*
X77488421Y-31187368D01*
X77421579Y-31120526D01*
X77354737Y-31187368D01*
X76174314Y-31187368D01*
X76207281Y-31071613D01*
X81255226Y-31071613D01*
X81365263Y-31120526D01*
X81436036Y-31110878D01*
X81454386Y-31031403D01*
X81434793Y-31015404D01*
X81276141Y-31031403D01*
X81255226Y-31071613D01*
X76207281Y-31071613D01*
X76245354Y-30937929D01*
X80453121Y-30937929D01*
X80563158Y-30986842D01*
X80633930Y-30977194D01*
X80652281Y-30897719D01*
X80632687Y-30881720D01*
X80474035Y-30897719D01*
X80453121Y-30937929D01*
X76245354Y-30937929D01*
X76315797Y-30690583D01*
X76489757Y-30251579D01*
X77889474Y-30251579D01*
X77956316Y-30318421D01*
X78023158Y-30251579D01*
X77956316Y-30184737D01*
X77889474Y-30251579D01*
X76489757Y-30251579D01*
X76661922Y-29817105D01*
X78960995Y-29817105D01*
X78961030Y-29827716D01*
X79014728Y-29966564D01*
X79211096Y-30033624D01*
X79611777Y-30051052D01*
X79727002Y-30050343D01*
X80078723Y-30023292D01*
X80242376Y-29942102D01*
X80855771Y-29942102D01*
X81003220Y-30011767D01*
X81341247Y-30124535D01*
X81780007Y-30251579D01*
X81827663Y-30265378D01*
X81859320Y-30274082D01*
X82720036Y-30535679D01*
X83329298Y-30779847D01*
X83515378Y-30897719D01*
X83701249Y-31015459D01*
X83711303Y-31031403D01*
X83850028Y-31251387D01*
X83789778Y-31496506D01*
X83738728Y-31550548D01*
X83577502Y-31584569D01*
X83279881Y-31531423D01*
X82790009Y-31384872D01*
X82780131Y-31381689D01*
X82313504Y-31248061D01*
X81937816Y-31170405D01*
X81733584Y-31165444D01*
X81678895Y-31205987D01*
X81674118Y-31209528D01*
X81802673Y-31243656D01*
X81805444Y-31243803D01*
X82045494Y-31304374D01*
X82440718Y-31449203D01*
X82907004Y-31647530D01*
X83774453Y-32040850D01*
X83975297Y-31560162D01*
X84015055Y-31462658D01*
X84117330Y-31178454D01*
X84140966Y-31049240D01*
X84026086Y-30966467D01*
X83614728Y-30751232D01*
X83054488Y-30517191D01*
X82686096Y-30385263D01*
X83771579Y-30385263D01*
X83838421Y-30452105D01*
X83885898Y-30404628D01*
X83972106Y-30404628D01*
X84554345Y-31049240D01*
X84579874Y-31077504D01*
X84320676Y-31656442D01*
X84061477Y-32235380D01*
X84551528Y-32590802D01*
X84866148Y-32844994D01*
X85239802Y-33197635D01*
X85575422Y-33558897D01*
X85817499Y-33868516D01*
X85910527Y-34066230D01*
X85936005Y-34196148D01*
X86032713Y-34170566D01*
X86175814Y-33951465D01*
X86337690Y-33570871D01*
X86365016Y-33493950D01*
X86475907Y-33114517D01*
X86479497Y-32852981D01*
X86380546Y-32601661D01*
X86189909Y-32328132D01*
X85825789Y-31920453D01*
X85369057Y-31473465D01*
X84885275Y-31050861D01*
X84440000Y-30716336D01*
X83972106Y-30404628D01*
X83885898Y-30404628D01*
X83905263Y-30385263D01*
X83838421Y-30318421D01*
X83771579Y-30385263D01*
X82686096Y-30385263D01*
X82423033Y-30291055D01*
X81798032Y-30099531D01*
X81257156Y-29969331D01*
X80878072Y-29927163D01*
X80855771Y-29942102D01*
X80242376Y-29942102D01*
X80259124Y-29933793D01*
X80345215Y-29750263D01*
X80352871Y-29716842D01*
X82301053Y-29716842D01*
X82367895Y-29783684D01*
X82434737Y-29716842D01*
X82367895Y-29650000D01*
X82301053Y-29716842D01*
X80352871Y-29716842D01*
X80379390Y-29601087D01*
X81388910Y-29601087D01*
X81498948Y-29650000D01*
X81569720Y-29640352D01*
X81588071Y-29560877D01*
X81568477Y-29544877D01*
X81409825Y-29560877D01*
X81388910Y-29601087D01*
X80379390Y-29601087D01*
X80418991Y-29428228D01*
X80394858Y-29213925D01*
X80202091Y-29150942D01*
X79794474Y-29192468D01*
X79624490Y-29220320D01*
X79222865Y-29336943D01*
X79019264Y-29522709D01*
X78960995Y-29817105D01*
X76661922Y-29817105D01*
X76806161Y-29453107D01*
X77684808Y-29453107D01*
X77731028Y-29494687D01*
X77906749Y-29452085D01*
X77910915Y-29450847D01*
X78220418Y-29281049D01*
X78520492Y-29006277D01*
X78550843Y-28970779D01*
X78733427Y-28800055D01*
X78960989Y-28696601D01*
X79307660Y-28637777D01*
X79847570Y-28600940D01*
X80079374Y-28590906D01*
X80571836Y-28591293D01*
X80868824Y-28638595D01*
X81021289Y-28738796D01*
X81167768Y-28840636D01*
X81516549Y-28979911D01*
X81966842Y-29101762D01*
X82179578Y-29152503D01*
X82979285Y-29428228D01*
X83120734Y-29476997D01*
X83290655Y-29560877D01*
X83606603Y-29716842D01*
X84070413Y-29945798D01*
X84755826Y-30385263D01*
X84959975Y-30516157D01*
X85720781Y-31145329D01*
X86284192Y-31790564D01*
X86404622Y-31957657D01*
X86616094Y-32214988D01*
X86742611Y-32318610D01*
X86783383Y-32226108D01*
X86799310Y-31935481D01*
X86787246Y-31517693D01*
X86751329Y-31045842D01*
X86695698Y-30593025D01*
X86624492Y-30232341D01*
X86540908Y-30030887D01*
X86194972Y-29587890D01*
X85633023Y-29106947D01*
X84882816Y-28610164D01*
X83972106Y-28119648D01*
X83068350Y-27717044D01*
X81964637Y-27361689D01*
X80986606Y-27228321D01*
X80117374Y-27319317D01*
X79340060Y-27637058D01*
X78637784Y-28183923D01*
X77993663Y-28962291D01*
X77776237Y-29281431D01*
X77684808Y-29453107D01*
X76806161Y-29453107D01*
X76808039Y-29448368D01*
X77409024Y-28401823D01*
X78106652Y-27564409D01*
X78888822Y-26949589D01*
X79743434Y-26570825D01*
X80658390Y-26441579D01*
X80902352Y-26433178D01*
X81142605Y-26378926D01*
X81376717Y-26240197D01*
X81665978Y-25978569D01*
X82071681Y-25555620D01*
X82234912Y-25378409D01*
X82598217Y-24959770D01*
X82873867Y-24608300D01*
X83012108Y-24385883D01*
X83077363Y-24229865D01*
X83163030Y-24183351D01*
X83312898Y-24361603D01*
X83435346Y-24610762D01*
X83500088Y-25119775D01*
X83414327Y-25691120D01*
X83184411Y-26232385D01*
X82865980Y-26758454D01*
X84020622Y-27325051D01*
X84146124Y-27388484D01*
X84832010Y-27781842D01*
X85540514Y-28249624D01*
X86136651Y-28703874D01*
X86384978Y-28906906D01*
X86769529Y-29191432D01*
X87050755Y-29360386D01*
X87180594Y-29382523D01*
X87232157Y-29324484D01*
X87451681Y-29250560D01*
X87677999Y-29299200D01*
X87782106Y-29454883D01*
X87794058Y-29521544D01*
X87903343Y-29516212D01*
X88149737Y-29311393D01*
X88564123Y-28959045D01*
X89074821Y-28585593D01*
X89619518Y-28230049D01*
X90137604Y-27929800D01*
X90568473Y-27722234D01*
X90851517Y-27644737D01*
X90924091Y-27678847D01*
X90990527Y-27875056D01*
X91016060Y-27963462D01*
X91142139Y-27913373D01*
X91397516Y-27659779D01*
X91504650Y-27544067D01*
X91709786Y-27358667D01*
X91924848Y-27267464D01*
X92235445Y-27245126D01*
X92727182Y-27266319D01*
X92736135Y-27266829D01*
X93210243Y-27306341D01*
X93572859Y-27359417D01*
X93746122Y-27414718D01*
X93758284Y-27434578D01*
X93715617Y-27632082D01*
X93530943Y-27958259D01*
X93242730Y-28362307D01*
X92889449Y-28793424D01*
X92509569Y-29200809D01*
X92141559Y-29533660D01*
X91716647Y-29852823D01*
X90639744Y-30481381D01*
X89490230Y-30893459D01*
X89188503Y-30989861D01*
X88710131Y-31205823D01*
X88362560Y-31439191D01*
X88304427Y-31490851D01*
X88001935Y-31702937D01*
X87764543Y-31788947D01*
X87595306Y-31874854D01*
X87565256Y-31935481D01*
X87455669Y-32156579D01*
X87452857Y-32168079D01*
X87373721Y-32449767D01*
X87252156Y-32852981D01*
X87232365Y-32918626D01*
X87047940Y-33512134D01*
X86839597Y-34167771D01*
X86808737Y-34264012D01*
X86614537Y-34878549D01*
X86605425Y-34908249D01*
X86456585Y-35393380D01*
X86350420Y-35757006D01*
X86311579Y-35917927D01*
X86329182Y-35950112D01*
X86520116Y-36064299D01*
X86853384Y-36186849D01*
X86978922Y-36228975D01*
X87303492Y-36385828D01*
X87469265Y-36542220D01*
X87485965Y-36579367D01*
X87699944Y-36737327D01*
X88051201Y-36709425D01*
X88501767Y-36505646D01*
X89013677Y-36135978D01*
X89150202Y-36021535D01*
X89583354Y-35665968D01*
X90143941Y-35212513D01*
X90774457Y-34707544D01*
X91417399Y-34197438D01*
X91692681Y-33976887D01*
X92278019Y-33486782D01*
X94068199Y-33486782D01*
X94132882Y-33895167D01*
X94328975Y-34413790D01*
X94604556Y-34882048D01*
X94906607Y-35192101D01*
X94963740Y-35228812D01*
X95515174Y-35497521D01*
X95962368Y-35550798D01*
X96282769Y-35385474D01*
X96423686Y-35205644D01*
X96459619Y-35096812D01*
X96438116Y-35084926D01*
X96242220Y-34982874D01*
X95927455Y-34822154D01*
X95720866Y-34701226D01*
X95300540Y-34287252D01*
X95032847Y-33701311D01*
X94899193Y-32908806D01*
X94866933Y-32559725D01*
X94816735Y-32265704D01*
X94772621Y-32202250D01*
X95183880Y-32202250D01*
X95248329Y-32727283D01*
X95397714Y-33260673D01*
X95604234Y-33710514D01*
X95840086Y-33984899D01*
X96166990Y-34149258D01*
X96628325Y-34266713D01*
X97006316Y-34243739D01*
X97092087Y-34214299D01*
X97396302Y-34113447D01*
X97508713Y-34043489D01*
X97429723Y-33896775D01*
X97304252Y-33736085D01*
X97330804Y-33607557D01*
X97559069Y-33501513D01*
X98020909Y-33390674D01*
X98359295Y-33305846D01*
X98844929Y-33085423D01*
X99290909Y-32712775D01*
X99634161Y-32342363D01*
X99785923Y-32094013D01*
X99735105Y-31961685D01*
X99487364Y-31922631D01*
X99261413Y-31889410D01*
X99069570Y-31774625D01*
X99067030Y-31687948D01*
X99273580Y-31720401D01*
X99522850Y-31726452D01*
X99854950Y-31541332D01*
X100240110Y-31132794D01*
X100695271Y-30486128D01*
X100797076Y-30325597D01*
X101202425Y-29607301D01*
X101462664Y-28963014D01*
X101617084Y-28299542D01*
X101629867Y-28215746D01*
X101647848Y-27910574D01*
X101587964Y-27850707D01*
X101461671Y-28031134D01*
X101280426Y-28446842D01*
X101181320Y-28681884D01*
X100959078Y-29121561D01*
X100718999Y-29518855D01*
X100503409Y-29806535D01*
X100354634Y-29917368D01*
X100228753Y-29882891D01*
X100153026Y-29740718D01*
X100266619Y-29607397D01*
X100380406Y-29504444D01*
X100554964Y-29179125D01*
X100726346Y-28705609D01*
X100874093Y-28152713D01*
X100977745Y-27589252D01*
X101016842Y-27084042D01*
X101003951Y-26709515D01*
X100950961Y-26398278D01*
X100872367Y-26338786D01*
X100784932Y-26535866D01*
X100779563Y-26566822D01*
X100705416Y-26994346D01*
X100622471Y-27407277D01*
X100444205Y-27988333D01*
X100219498Y-28545447D01*
X100202836Y-28581288D01*
X100017867Y-29018207D01*
X99905322Y-29358108D01*
X99889014Y-29530048D01*
X99898644Y-29633281D01*
X99712477Y-29587192D01*
X99345790Y-29392207D01*
X99218903Y-29314126D01*
X99070850Y-29186837D01*
X99048626Y-29128995D01*
X99220593Y-29128995D01*
X99260568Y-29184350D01*
X99436810Y-29256302D01*
X99623728Y-29112620D01*
X99806151Y-28793507D01*
X99968907Y-28339167D01*
X100096825Y-27789804D01*
X100174734Y-27185621D01*
X100187461Y-26566822D01*
X100184746Y-26506550D01*
X100144161Y-26037285D01*
X100081007Y-25694144D01*
X100007738Y-25547746D01*
X99950143Y-25584370D01*
X99909496Y-25852281D01*
X99922692Y-26366986D01*
X99938475Y-26774543D01*
X99904922Y-27192424D01*
X99787737Y-27600975D01*
X99562131Y-28120771D01*
X99536103Y-28176941D01*
X99350427Y-28617091D01*
X99237384Y-28957681D01*
X99220593Y-29128995D01*
X99048626Y-29128995D01*
X99006658Y-29019769D01*
X99024942Y-28758958D01*
X99124317Y-28350438D01*
X99303399Y-27740243D01*
X99337586Y-27619135D01*
X99448139Y-27070270D01*
X99495777Y-26536441D01*
X99481457Y-26079079D01*
X99406132Y-25759613D01*
X99270756Y-25639473D01*
X99226219Y-25650161D01*
X99145263Y-25802807D01*
X99142534Y-25865225D01*
X99055783Y-26289282D01*
X98874081Y-26834129D01*
X98634097Y-27410067D01*
X98372495Y-27927398D01*
X98125943Y-28296422D01*
X97986654Y-28463392D01*
X97790494Y-28759004D01*
X97727382Y-29038038D01*
X97758249Y-29419861D01*
X97774087Y-29572937D01*
X97770118Y-29982866D01*
X97702372Y-30264292D01*
X97663764Y-30349098D01*
X97668147Y-30591201D01*
X97853367Y-30915839D01*
X98039498Y-31271525D01*
X98146732Y-31815073D01*
X98081954Y-32337630D01*
X97845556Y-32747017D01*
X97695310Y-32878632D01*
X97498965Y-32962263D01*
X97452396Y-32850291D01*
X97594259Y-32569952D01*
X97760241Y-32180664D01*
X97780395Y-31639884D01*
X97607895Y-31120526D01*
X97530119Y-30916553D01*
X97446338Y-30477190D01*
X97412106Y-29967158D01*
X97403943Y-29679704D01*
X97338778Y-29220642D01*
X97203612Y-28978897D01*
X97078791Y-28891043D01*
X96960180Y-28862265D01*
X96890057Y-29004181D01*
X96754276Y-29342449D01*
X96586124Y-29795126D01*
X96412715Y-30286961D01*
X96261161Y-30742704D01*
X96158574Y-31087105D01*
X96122049Y-31216234D01*
X95991248Y-31539793D01*
X95883350Y-31641764D01*
X95828730Y-31515399D01*
X95857761Y-31153947D01*
X95942119Y-30652631D01*
X95615988Y-31042437D01*
X95599250Y-31062898D01*
X95353801Y-31465028D01*
X95204895Y-31885131D01*
X95183880Y-32202250D01*
X94772621Y-32202250D01*
X94746383Y-32164508D01*
X94639636Y-32212579D01*
X94380544Y-32524787D01*
X94155403Y-33007780D01*
X94068199Y-33486782D01*
X92278019Y-33486782D01*
X92331364Y-33442116D01*
X92925502Y-32915407D01*
X93418700Y-32447621D01*
X93754563Y-32089618D01*
X93991277Y-31815175D01*
X94450477Y-31308799D01*
X94977863Y-30748723D01*
X95500060Y-30213801D01*
X95883820Y-29819624D01*
X96296764Y-29352486D01*
X96531174Y-29012738D01*
X96605263Y-28776696D01*
X96622766Y-28597944D01*
X96744823Y-28474868D01*
X97052439Y-28446842D01*
X97412787Y-28386970D01*
X97705284Y-28212894D01*
X97918620Y-27916342D01*
X98220707Y-27352375D01*
X98504910Y-26676905D01*
X98731570Y-25976358D01*
X98884119Y-25496988D01*
X99035648Y-25231395D01*
X99213706Y-25132789D01*
X99430243Y-25078759D01*
X99778965Y-24942266D01*
X99833353Y-24916648D01*
X100092136Y-24874540D01*
X100347123Y-25036719D01*
X100521803Y-25255230D01*
X100615790Y-25529817D01*
X100691700Y-25721694D01*
X100952398Y-25907753D01*
X101224204Y-26096773D01*
X101463137Y-26505427D01*
X101551579Y-27035491D01*
X101590543Y-27250393D01*
X101752106Y-27511052D01*
X101881773Y-27741989D01*
X101906853Y-27910574D01*
X101945532Y-28170571D01*
X101923858Y-28707149D01*
X101814045Y-29274668D01*
X101736565Y-29471376D01*
X101514021Y-29891881D01*
X101198817Y-30406755D01*
X100832243Y-30945721D01*
X100573521Y-31311565D01*
X100222527Y-31824672D01*
X99941164Y-32255636D01*
X99773756Y-32537787D01*
X99773205Y-32538853D01*
X99507210Y-32923333D01*
X99127837Y-33323961D01*
X98720905Y-33660279D01*
X98372230Y-33851825D01*
X98186877Y-33964625D01*
X97979846Y-34232659D01*
X97943563Y-34302218D01*
X97753711Y-34605035D01*
X97464974Y-35025006D01*
X97412703Y-35096812D01*
X97124033Y-35493365D01*
X97042167Y-35603840D01*
G37*
G36*
X109071316Y-79139592D02*
G01*
X109773158Y-79180000D01*
X109813147Y-80102526D01*
X109823806Y-80588283D01*
X109813386Y-80986869D01*
X109783921Y-81205420D01*
X109765502Y-81237379D01*
X109524840Y-81348144D01*
X109042091Y-81385789D01*
X108369474Y-81385789D01*
X108369474Y-79099185D01*
X109071316Y-79139592D01*
G37*
G36*
X105027369Y-80583684D02*
G01*
X103556842Y-80583684D01*
X103556842Y-79113158D01*
X105027369Y-79113158D01*
X105027369Y-80583684D01*
G37*
G36*
X99232976Y-80282672D02*
G01*
X99319678Y-80617105D01*
X99393891Y-81018701D01*
X99487565Y-81486052D01*
X99491216Y-81503314D01*
X99531260Y-81789423D01*
X99441868Y-81901331D01*
X99161974Y-81920526D01*
X98951273Y-81917238D01*
X98811025Y-81872988D01*
X98765143Y-81732382D01*
X98798596Y-81439942D01*
X98896351Y-80940190D01*
X98908700Y-80879725D01*
X99027706Y-80413814D01*
X99135725Y-80214852D01*
X99232976Y-80282672D01*
G37*
G36*
X74346842Y-61107677D02*
G01*
X74688911Y-61262902D01*
X74948421Y-61371103D01*
X75031602Y-61429158D01*
X74862968Y-61456288D01*
X74577803Y-61387379D01*
X74261389Y-61192861D01*
X73945790Y-60918880D01*
X74346842Y-61107677D01*
G37*
G36*
X74185830Y-58846206D02*
G01*
X74547898Y-59026202D01*
X75125623Y-59351231D01*
X75221368Y-59407570D01*
X75704795Y-59706822D01*
X76212959Y-60040694D01*
X76695632Y-60373817D01*
X77102585Y-60670823D01*
X77383591Y-60896343D01*
X77488421Y-61015009D01*
X77482076Y-61044446D01*
X77389229Y-61060961D01*
X77168299Y-60969931D01*
X76797092Y-60759146D01*
X76253412Y-60416397D01*
X75515063Y-59929473D01*
X75452848Y-59887848D01*
X74804130Y-59442908D01*
X74348568Y-59109592D01*
X74090665Y-58894582D01*
X74034919Y-58804559D01*
X74185830Y-58846206D01*
G37*
G36*
X75522858Y-46142750D02*
G01*
X75772462Y-46241729D01*
X75884211Y-46356119D01*
X75883888Y-46361460D01*
X75764068Y-46405172D01*
X75476334Y-46338115D01*
X75441351Y-46325581D01*
X75198567Y-46211901D01*
X75135898Y-46128488D01*
X75263861Y-46098260D01*
X75522858Y-46142750D01*
G37*
G36*
X75612747Y-45202826D02*
G01*
X75520529Y-45514066D01*
X75482331Y-45608826D01*
X75421961Y-45686040D01*
X75374308Y-45510800D01*
X75369794Y-45360547D01*
X75470621Y-45116431D01*
X75593623Y-45057332D01*
X75612747Y-45202826D01*
G37*
G36*
X76397817Y-44921395D02*
G01*
X76647694Y-44998873D01*
X76787410Y-45123947D01*
X76788374Y-45205834D01*
X76641548Y-45291052D01*
X76414795Y-45265814D01*
X76134343Y-45155334D01*
X76017895Y-45000502D01*
X76020452Y-44981877D01*
X76150997Y-44909676D01*
X76397817Y-44921395D01*
G37*
G36*
X75257196Y-44657690D02*
G01*
X75349474Y-44823158D01*
X75293812Y-44967151D01*
X75048685Y-44999561D01*
X74861596Y-44943792D01*
X74747895Y-44823158D01*
X74813590Y-44730677D01*
X75048685Y-44646754D01*
X75257196Y-44657690D01*
G37*
G36*
X76578038Y-44504029D02*
G01*
X76686316Y-44622631D01*
X76663693Y-44684130D01*
X76485790Y-44756315D01*
X76393542Y-44741233D01*
X76285263Y-44622631D01*
X76307887Y-44561133D01*
X76485790Y-44488947D01*
X76578038Y-44504029D01*
G37*
G36*
X75438597Y-44399824D02*
G01*
X75459511Y-44440034D01*
X75349474Y-44488947D01*
X75278702Y-44479299D01*
X75260351Y-44399824D01*
X75279945Y-44383825D01*
X75438597Y-44399824D01*
G37*
X125220000Y-74640000D02*
X125470000Y-74640000D01*
X125220000Y-80640000D02*
X125220000Y-74640000D01*
X125470000Y-80640000D02*
X125220000Y-80640000D01*
X128720000Y-80640000D02*
X128470000Y-80640000D01*
X128720000Y-74640000D02*
X128720000Y-80640000D01*
X128470000Y-74640000D02*
X128720000Y-74640000D01*
X142020000Y-74330000D02*
X142020000Y-80330000D01*
X142020000Y-80330000D02*
X130020000Y-80330000D01*
X130020000Y-80330000D02*
X130020000Y-74330000D01*
X130020000Y-74330000D02*
X142020000Y-74330000D01*
M02*
