M48
; DRILL file {KiCad (6.0.4)} date Thu 21 Apr 2022 09:54:40 PM CEST
; FORMAT={-:-/ absolute / inch / decimal}
; #@! TF.CreationDate,2022-04-21T21:54:40+02:00
; #@! TF.GenerationSoftware,Kicad,Pcbnew,(6.0.4)
; #@! TF.FileFunction,NonPlated,1,2,NPTH
FMAT,2
INCH
; #@! TA.AperFunction,NonPlated,NPTH,ComponentDrill
T1C0.0390
; #@! TA.AperFunction,NonPlated,NPTH,ComponentDrill
T2C0.0472
; #@! TA.AperFunction,NonPlated,NPTH,ComponentDrill
T3C0.0670
; #@! TA.AperFunction,NonPlated,NPTH,ComponentDrill
T4C0.1350
%
G90
G05
T1
X1.5268Y-1.5185
X1.5268Y-2.1878
X1.5268Y-2.8573
X1.9378Y-1.5185
X1.9378Y-2.1878
X1.9378Y-2.8573
X2.2354Y-1.037
X2.2354Y-1.7063
X2.2354Y-2.3758
X2.6465Y-1.037
X2.6465Y-1.7063
X2.6465Y-2.3758
X2.9441Y-0.7689
X2.9441Y-1.4378
X2.9441Y-2.1071
X3.3551Y-0.7689
X3.3551Y-1.4378
X3.3551Y-2.1071
X3.6528Y-0.9898
X3.6528Y-1.6591
X3.6528Y-2.3285
X4.0083Y-3.4046
X4.0638Y-0.9898
X4.0638Y-1.6591
X4.0638Y-2.3285
X4.3614Y-1.0835
X4.3614Y-1.7528
X4.3614Y-2.422
X4.4053Y-3.5109
X4.7197Y-3.642
X4.7724Y-1.0835
X4.7724Y-1.7528
X4.7724Y-2.422
X5.0756Y-3.8475
T2
X5.2567Y-3.0445
X5.2567Y-3.1134
X5.5323Y-3.0445
X5.5323Y-3.1134
T3
X1.5157Y-1.6839
X1.5157Y-2.3531
X1.5157Y-3.0226
X1.9488Y-1.6839
X1.9488Y-2.3531
X1.9488Y-3.0226
X2.2244Y-1.2024
X2.2244Y-1.8717
X2.2244Y-2.5411
X2.6575Y-1.2024
X2.6575Y-1.8717
X2.6575Y-2.5411
X2.9331Y-0.9343
X2.9331Y-1.6031
X2.9331Y-2.2724
X3.3661Y-0.9343
X3.3661Y-1.6031
X3.3661Y-2.2724
X3.6417Y-1.1551
X3.6417Y-1.8244
X3.6417Y-2.4939
X4.0404Y-3.242
X4.0748Y-1.1551
X4.0748Y-1.8244
X4.0748Y-2.4939
X4.3504Y-1.2488
X4.3504Y-1.9181
X4.3504Y-2.5874
X4.4588Y-3.3541
X4.7835Y-1.2488
X4.7835Y-1.9181
X4.7835Y-2.5874
X4.7928Y-3.4933
X5.1678Y-3.7098
T4
X1.7323Y-1.6839
X1.7323Y-2.3531
X1.7323Y-3.0226
X2.4409Y-1.2024
X2.4409Y-1.8717
X2.4409Y-2.5411
X3.1496Y-0.9343
X3.1496Y-1.6031
X3.1496Y-2.2724
X3.8583Y-1.1551
X3.8583Y-1.8244
X3.8583Y-2.4939
X4.2496Y-3.298
X4.5669Y-1.2488
X4.5669Y-1.9181
X4.5669Y-2.5874
X4.9803Y-3.6016
T0
M30
