<?xml version="1.0" encoding="UTF-8" standalone="no"?>
<svg
   version="1.1"
   stroke-linecap="round"
   stroke-linejoin="round"
   stroke-width="0"
   fill-rule="evenodd"
   width="107.49851mm"
   height="86.801147mm"
   viewBox="35743.055 -102041.57 107498.53 86801.147"
   id="ferris-sweep-compact-Edge_Cuts"
   sodipodi:docname="cuts.svg"
   inkscape:version="1.1.2 (0a00cf5339, 2022-02-04, custom)"
   xmlns:inkscape="http://www.inkscape.org/namespaces/inkscape"
   xmlns:sodipodi="http://sodipodi.sourceforge.net/DTD/sodipodi-0.dtd"
   xmlns="http://www.w3.org/2000/svg"
   xmlns:svg="http://www.w3.org/2000/svg">
  <defs
     id="defs9" />
  <sodipodi:namedview
     id="namedview7"
     pagecolor="#ffffff"
     bordercolor="#111111"
     borderopacity="1"
     inkscape:pageshadow="0"
     inkscape:pageopacity="0"
     inkscape:pagecheckerboard="1"
     inkscape:document-units="mm"
     showgrid="false"
     inkscape:lockguides="true"
     inkscape:zoom="2.56"
     inkscape:cx="267.77344"
     inkscape:cy="173.82813"
     inkscape:window-width="3440"
     inkscape:window-height="1413"
     inkscape:window-x="0"
     inkscape:window-y="0"
     inkscape:window-maximized="1"
     inkscape:current-layer="ferris-sweep-compact-Edge_Cuts"
     fit-margin-top="0"
     fit-margin-left="0"
     fit-margin-right="0"
     fit-margin-bottom="0" />
  <path
     d="m 106652.66,-95630.125 21.93,1281.686 c 0,143.216 56.89,280.567 158.16,381.836 101.27,101.269 238.62,158.162 381.84,158.164 m 17162.69,869.157 c 0,-230.738 -91.66,-452.026 -254.82,-615.183 -163.15,-163.157 -384.44,-254.817 -615.18,-254.817 m -15130,0 h 15130 m -16292.69,0.843 1162.69,-0.843 m -1724.62,-1820.843 v 0 c 0,-230.738 -91.66,-452.026 -254.82,-615.183 -163.15,-163.157 -384.44,-254.817 -615.18,-254.817 m -17182.679,-539.157 c 0,143.216 56.895,280.567 158.164,381.836 101.269,101.269 238.62,158.162 381.836,158.164 l 1162.689,-0.843 h 15479.99 m -17182.679,-539.157 -2.689,-4329.998 m -15770,-540 c -230.738,0 -452.026,91.66 -615.183,254.82 -163.157,163.15 -254.817,384.44 -254.817,615.18 m 16640,-330 c 0,-143.22 -56.895,-280.57 -158.164,-381.84 -101.269,-101.27 -238.62,-158.16 -381.836,-158.16 m -15230,0 h 15230 m -16097.311,5760.841 -2.689,-4890.841 m -537.311,5430.837 c 143.216,0 280.567,-56.892 381.837,-158.161 101.269,-101.268 158.162,-238.619 158.163,-381.835 m -17182.689,539.157 h 15480 l 1162.689,0.843 m -16642.689,-0.843 c -230.738,0 -452.026,91.66 -615.183,254.817 -163.157,163.157 -254.817,384.445 -254.817,615.183 v 0 m 20.744,11500.843 -20.744,-11500.843 m -1681.945,12040 1162.689,0.843 c 143.217,0 280.568,-56.893 381.838,-158.162 101.269,-101.27 158.162,-238.621 158.162,-381.838 m -17182.689,539.157 c -230.738,0 -452.026,91.66 -615.183,254.817 -163.157,163.157 -254.817,384.445 -254.817,615.183 m 870,-870 h 15480 m -16350,870 17.964,47542.794 m 105469.269,-594.644 c 1129.73,-2277.477 1727,-4781.948 1746.7,-7324.15 m -12,-36426 12,36426 m -18702,-39104.001 -30,-11629.999 m 16985.3,58058.15 -10507.3,18593.12 m -94979.933,-65541.27 v 0 m 90566.933,2450.917 15905,-2.917 m 750,750 c 0,-198.912 -79.02,-389.678 -219.67,-530.33 -140.65,-140.652 -331.42,-219.67 -530.33,-219.67 m -14224,63692 c 440.84,285.88 977.75,383.462 1490.99,270.982 513.25,-112.479 960.14,-425.664 1241.01,-869.712 m -24260.87,-8587.325 c -22548.53,-4931.792 -45559.576,-7439.641 -68641.118,-7480.826 m -2059.98,-1930.325 c 18.504,528.697 245.596,1028.559 631.622,1390.288 386.025,361.729 899.575,555.893 1428.358,540.037 m 90169.988,16666.881 c -6725.75,-4025.64 -13968.66,-7116.084 -21528.87,-9186.054 m 17812.87,-56433.947 c 18.35,524.373 241.91,1020.564 622.53,1381.717 380.62,361.154 887.86,558.378 1412.47,549.201"
     fill="none"
     stroke-width="50"
     id="path2"
     style="stroke:#000000;stroke-width:264.583;stroke-miterlimit:4;stroke-dasharray:none"
     sodipodi:nodetypes="ccsccsccccccssccsccccccsccsccccccscccccsscccccsccsccccccccccccccccccsccsccccsccccsc" />
</svg>
