<?xml version="1.0" encoding="UTF-8" standalone="no"?>
<svg
   version="1.1"
   stroke-linecap="round"
   stroke-linejoin="round"
   stroke-width="0"
   fill-rule="evenodd"
   width="107.49851mm"
   height="86.801147mm"
   viewBox="35743.055 -102041.57 107498.53 86801.147"
   id="ferris-sweep-compact-Edge_Cuts"
   sodipodi:docname="cuts.svg"
   inkscape:version="1.1.2 (0a00cf5339, 2022-02-04, custom)"
   xmlns:inkscape="http://www.inkscape.org/namespaces/inkscape"
   xmlns:sodipodi="http://sodipodi.sourceforge.net/DTD/sodipodi-0.dtd"
   xmlns="http://www.w3.org/2000/svg"
   xmlns:svg="http://www.w3.org/2000/svg">
  <defs
     id="defs9" />
  <sodipodi:namedview
     id="namedview7"
     pagecolor="#ffffff"
     bordercolor="#111111"
     borderopacity="1"
     inkscape:pageshadow="0"
     inkscape:pageopacity="0"
     inkscape:pagecheckerboard="1"
     inkscape:document-units="mm"
     showgrid="false"
     inkscape:lockguides="true"
     inkscape:zoom="1.8101934"
     inkscape:cx="-60.490775"
     inkscape:cy="367.9165"
     inkscape:window-width="3440"
     inkscape:window-height="1413"
     inkscape:window-x="0"
     inkscape:window-y="0"
     inkscape:window-maximized="1"
     inkscape:current-layer="ferris-sweep-compact-Edge_Cuts"
     fit-margin-top="0"
     fit-margin-left="0"
     fit-margin-right="0"
     fit-margin-bottom="0" />
  <path
     style="stroke:#000000;stroke-width:264.583;stroke-miterlimit:4;stroke-dasharray:none;fill:none"
     d="m 124407.28,-81309.283 c 18.35,524.373 241.91,1020.564 622.53,1381.717 380.62,361.154 887.86,558.378 1412.47,549.201"
     id="path1341" />
  <path
     style="stroke:#000000;stroke-width:264.583;stroke-miterlimit:4;stroke-dasharray:none;fill:none"
     d="m 128123.28,-15689.282 c -6725.75,-4025.64 -13968.66,-7116.084 -21528.87,-9186.054"
     id="path1339" />
  <path
     style="stroke:#000000;stroke-width:264.583;stroke-miterlimit:4;stroke-dasharray:none;fill:none"
     d="m 35893.312,-34286.488 c 18.504,528.697 245.596,1028.559 631.622,1390.288 386.025,361.729 899.575,555.893 1428.358,540.037"
     id="path1337" />
  <path
     style="stroke:#000000;stroke-width:264.583;stroke-miterlimit:4;stroke-dasharray:none;fill:none"
     d="M 106594.41,-24875.337 C 84045.88,-29807.129 61034.834,-32314.978 37953.292,-32356.163"
     id="path1335" />
  <path
     style="stroke:#000000;stroke-width:264.583;stroke-miterlimit:4;stroke-dasharray:none;fill:none"
     d="m 128123.28,-15689.282 c 440.84,285.88 977.75,383.462 1490.99,270.982 513.25,-112.479 960.14,-425.664 1241.01,-869.712"
     id="path1333" />
  <path
     style="stroke:#000000;stroke-width:264.583;stroke-miterlimit:4;stroke-dasharray:none;fill:none"
     d="m 143097.28,-78631.282 c 0,-198.912 -79.02,-389.678 -219.67,-530.33 -140.65,-140.652 -331.42,-219.67 -530.33,-219.67"
     id="path1331" />
  <path
     style="stroke:#000000;stroke-width:264.583;stroke-miterlimit:4;stroke-dasharray:none;fill:none"
     d="m 126442.28,-79378.365 15905,-2.917"
     id="path1329" />
  <path
     style="stroke:#000000;stroke-width:264.583;stroke-miterlimit:4;stroke-dasharray:none;fill:none"
     d="m 35875.347,-81829.282 v 0"
     id="path1327" />
  <path
     style="stroke:#000000;stroke-width:264.583;stroke-miterlimit:4;stroke-dasharray:none;fill:none"
     d="m 141362.58,-34881.132 -10507.3,18593.12"
     id="path1325" />
  <path
     style="stroke:#000000;stroke-width:264.583;stroke-miterlimit:4;stroke-dasharray:none;fill:none"
     d="m 124407.28,-81309.283 -30,-11629.999"
     id="path1323" />
  <path
     style="stroke:#000000;stroke-width:264.583;stroke-miterlimit:4;stroke-dasharray:none;fill:none"
     d="m 143097.28,-78631.282 12,36426"
     id="path1321" />
  <path
     style="stroke:#000000;stroke-width:264.583;stroke-miterlimit:4;stroke-dasharray:none;fill:none"
     d="m 141362.58,-34881.132 c 1129.73,-2277.477 1727,-4781.948 1746.7,-7324.15"
     id="path1319" />
  <path
     style="stroke:#000000;stroke-width:264.583;stroke-miterlimit:4;stroke-dasharray:none;fill:none"
     d="m 35875.347,-81829.282 17.964,47542.794"
     id="path1317" />
  <path
     style="stroke:#000000;stroke-width:264.583;stroke-miterlimit:4;stroke-dasharray:none;fill:none"
     d="m 36745.347,-82699.282 h 15480"
     id="path1315" />
  <path
     style="stroke:#000000;stroke-width:264.583;stroke-miterlimit:4;stroke-dasharray:none;fill:none"
     d="m 36745.347,-82699.282 c -230.738,0 -452.026,91.66 -615.183,254.817 -163.157,163.157 -254.817,384.445 -254.817,615.183"
     id="path1313" />
  <path
     style="stroke:#000000;stroke-width:264.583;stroke-miterlimit:4;stroke-dasharray:none;fill:none"
     d="m 52225.347,-82699.282 1162.689,0.843 c 143.217,0 280.568,-56.893 381.838,-158.162 101.269,-101.27 158.162,-238.621 158.162,-381.838"
     id="path1311" />
  <path
     style="stroke:#000000;stroke-width:264.583;stroke-miterlimit:4;stroke-dasharray:none;fill:none"
     d="m 53928.036,-83238.439 -20.744,-11500.843"
     id="path1309" />
  <path
     style="stroke:#000000;stroke-width:264.583;stroke-miterlimit:4;stroke-dasharray:none;fill:none"
     d="m 54777.292,-95609.282 c -230.738,0 -452.026,91.66 -615.183,254.817 -163.157,163.157 -254.817,384.445 -254.817,615.183 v 0"
     id="path1307" />
  <path
     style="stroke:#000000;stroke-width:264.583;stroke-miterlimit:4;stroke-dasharray:none;fill:none"
     d="m 54777.292,-95609.282 h 15480 l 1162.689,0.843"
     id="path1305" />
  <path
     style="stroke:#000000;stroke-width:264.583;stroke-miterlimit:4;stroke-dasharray:none;fill:none"
     d="m 71419.981,-95608.443 c 143.216,0 280.567,-56.892 381.837,-158.161 101.269,-101.268 158.162,-238.619 158.163,-381.835"
     id="path1303" />
  <path
     style="stroke:#000000;stroke-width:264.583;stroke-miterlimit:4;stroke-dasharray:none;fill:none"
     d="m 71959.981,-96148.439 -2.689,-4890.841"
     id="path1301" />
  <path
     style="stroke:#000000;stroke-width:264.583;stroke-miterlimit:4;stroke-dasharray:none;fill:none"
     d="m 72827.292,-101909.28 h 15230"
     id="path1299" />
  <path
     style="stroke:#000000;stroke-width:264.583;stroke-miterlimit:4;stroke-dasharray:none;fill:none"
     d="m 88597.292,-101369.28 c 0,-143.22 -56.895,-280.57 -158.164,-381.84 -101.269,-101.27 -238.62,-158.16 -381.836,-158.16"
     id="path1297" />
  <path
     style="stroke:#000000;stroke-width:264.583;stroke-miterlimit:4;stroke-dasharray:none;fill:none"
     d="m 72827.292,-101909.28 c -230.738,0 -452.026,91.66 -615.183,254.82 -163.157,163.15 -254.817,384.44 -254.817,615.18"
     id="path1295" />
  <path
     style="stroke:#000000;stroke-width:264.583;stroke-miterlimit:4;stroke-dasharray:none;fill:none"
     d="m 88599.981,-97039.282 -2.689,-4329.998"
     id="path1293" />
  <path
     style="stroke:#000000;stroke-width:264.583;stroke-miterlimit:4;stroke-dasharray:none;fill:none"
     d="m 88599.981,-97039.282 c 0,143.216 56.895,280.567 158.164,381.836 101.269,101.269 238.62,158.162 381.836,158.164 l 1162.689,-0.843 h 15479.99"
     id="path1291" />
  <path
     style="stroke:#000000;stroke-width:264.583;stroke-miterlimit:4;stroke-dasharray:none;fill:none"
     d="m 106652.66,-95630.125 v 0 c 0,-230.738 -91.66,-452.026 -254.82,-615.183 -163.15,-163.157 -384.44,-254.817 -615.18,-254.817"
     id="path1289" />
  <path
     style="stroke:#000000;stroke-width:264.583;stroke-miterlimit:4;stroke-dasharray:none;fill:none"
     d="m 107214.59,-93808.439 1162.69,-0.843"
     id="path1287" />
  <path
     style="stroke:#000000;stroke-width:264.583;stroke-miterlimit:4;stroke-dasharray:none;fill:none"
     d="m 108377.28,-93809.282 h 15130"
     id="path1285" />
  <path
     style="stroke:#000000;stroke-width:264.583;stroke-miterlimit:4;stroke-dasharray:none;fill:none"
     d="m 124377.28,-92939.282 c 0,-230.738 -91.66,-452.026 -254.82,-615.183 -163.15,-163.157 -384.44,-254.817 -615.18,-254.817"
     id="path1283" />
  <path
     style="stroke:#000000;stroke-width:264.583;stroke-miterlimit:4;stroke-dasharray:none;fill:none"
     d="m 106652.66,-95630.125 21.93,1281.686 c 0,143.216 56.89,280.567 158.16,381.836 101.27,101.269 238.62,158.162 381.84,158.164"
     id="path2" />
</svg>
