<?xml version="1.0" encoding="UTF-8" standalone="no"?>
<svg
   version="1.1"
   width="11.729720cm"
   height="9.436100cm"
   viewBox="0 0 117297200 94361000"
   id="svg103"
   sodipodi:docname="ferris-sweep-compact-Edge_Cuts.svg"
   inkscape:version="1.2 (dc2aedaf03, 2022-05-15)"
   xmlns:inkscape="http://www.inkscape.org/namespaces/inkscape"
   xmlns:sodipodi="http://sodipodi.sourceforge.net/DTD/sodipodi-0.dtd"
   xmlns="http://www.w3.org/2000/svg"
   xmlns:svg="http://www.w3.org/2000/svg">
  <defs
     id="defs107" />
  <sodipodi:namedview
     id="namedview105"
     pagecolor="#ffffff"
     bordercolor="#666666"
     borderopacity="1.0"
     inkscape:showpageshadow="2"
     inkscape:pageopacity="0.0"
     inkscape:pagecheckerboard="0"
     inkscape:deskcolor="#d1d1d1"
     inkscape:document-units="cm"
     showgrid="false"
     inkscape:zoom="1.3970547"
     inkscape:cx="26.126393"
     inkscape:cy="142.44253"
     inkscape:window-width="1920"
     inkscape:window-height="1053"
     inkscape:window-x="0"
     inkscape:window-y="0"
     inkscape:window-maximized="1"
     inkscape:current-layer="svg103" />
  <title
     id="title9">SVG Picture created as ferris-sweep-compact-Edge_Cuts.svg date 2022/06/16 17:52:26 </title>
  <desc
     id="desc11">Picture generated by PCBNEW </desc>
  <g
     style="fill:#000000; fill-opacity:1.000000;stroke:#000000; stroke-opacity:1.000000; stroke-linecap:round; stroke-linejoin:round;"
     transform="translate(0 0) scale(1 1)"
     id="g13" />
  <g
     style="fill:#000000; fill-opacity:0.0;  stroke:#000000; stroke-width:0.000000; stroke-opacity:1;  stroke-linecap:round; stroke-linejoin:round;"
     id="g15" />
  <g
     style="fill:#D0D2CD; fill-opacity:0.0;  stroke:#D0D2CD; stroke-width:0.000000; stroke-opacity:1;  stroke-linecap:round; stroke-linejoin:round;"
     id="g17" />
  <path
     d="M 39575419,3897360.8 C 35551999,4622562.4 31601307,5705303.1 27770333,7132704.7 23939360,8560106.3 20243385,10326476 16726368,12410804 c -3517017,2084328 -6841049.1,4478301 -9932558.9,7153446 -334459.7,252004 -627949.5,554201 -870071.2,895882 -242121.7,341682 -429964.7,718742 -556873.7,1117820 l 17957,49174092 c 4563.4,130587 21912.3,260413 51791.6,387618 29879.2,127205 72145.1,251178 126192.4,370143 54047.2,118966 119616.1,232352 195767.6,338535 76151.5,106183 162519.5,204653 257867.3,293999 95347.8,89346 199216.9,169138 310120,238236 110903.1,69097 228307,127166 350530.4,173375 122223.4,46210 248678.9,80338 377555.4,101895 128876.6,21558 259554.7,30442 390163.1,26524 11532545,20577 23055765,656962 34520442,1906435 11464678,1249473 22854457,3110253 34120692,5574392 3775727,1033787 7476728,2323316 11077354,3859651 3600626,1536334 7092530,3315913 10451512,5326403 108859,70593 224436,130241 345043,178070 120607,47829 245652,83605 373305,106805 127653,23201 257289,33711 387013,31378 129724,-2333 258898,-17497 385635,-45273 126737,-27775 250414,-68024 369223,-120158 118809,-52135 232167,-115899 338417,-190361 106251,-74462 204875,-159256 294425,-253142 89550,-93886 169580,-196404 238940,-306054 l 10507300,-18593115 c 563050,-1135085 995680,-2330308 1289610,-3562803 293930,-1232496 447270,-2494325 457090,-3761347 l -12000,-36426000 c 0,-98491 -19400,-196018 -57090,-287013 -37690,-90994 -92940,-173673 -162580,-243317 -69640,-69644 -152320,-124889 -243320,-162580 -90990,-37691 -188520,-57090 -287010,-57090 l -15904999,2917 c -129603,2267 -259120,-8063 -386725,-30845 -127605,-22781 -252695,-57907 -373507,-104882 -120811,-46974 -236773,-105575 -346251,-174977 -109479,-69402 -211955,-149276 -305985,-238497 -94030,-89221 -179170,-187367 -254218,-293054 -75049,-105687 -139652,-218416 -192899,-336597 -53246,-118182 -94885,-241257 -124328,-367491 -29444,-126235 -46553,-255031 -51087,-384575 h -1 l 23,-11990580 c -20,-71180 -10151,-141997 -30110,-210321 -19959,-68324 -49542,-133459 -87860,-193444 -38318,-59986 -84980,-114211 -138582,-161044 -53602,-46834 -113598,-85798 -178182,-115720 C 87433830,8854057.8 81262928,7055671.1 74992688,5675014.6 68722448,4294358.1 62366904,3334522 55968586,2801929.2 l -4201388,5459.8 c -4088255,0 -8168358,364770.2 -12191779,1089971.8 z"
     id="path19"
     style="fill:#384a02;fill-opacity:1;stroke:#d0d2cd;stroke-width:793750;stroke-linecap:round;stroke-linejoin:round;stroke-dasharray:none;stroke-opacity:1"
     sodipodi:nodetypes="ssscsccssssssscscscsssssssccsccsssccssssssscccssscsccs" />
  <g
     id="g53"
     style="fill:#272824;fill-opacity:0;stroke:#d0d2cd;stroke-width:50000;stroke-linecap:round;stroke-linejoin:round;stroke-opacity:1" />
  <g
     id="g55"
     style="fill:#272824;fill-opacity:0;stroke:#d0d2cd;stroke-width:50000;stroke-linecap:round;stroke-linejoin:round;stroke-opacity:1" />
  <g
     id="g57"
     style="fill:#272824;fill-opacity:0;stroke:#d0d2cd;stroke-width:50000;stroke-linecap:round;stroke-linejoin:round;stroke-opacity:1" />
  <g
     id="g59"
     style="fill:#272824;fill-opacity:0;stroke:#d0d2cd;stroke-width:50000;stroke-linecap:round;stroke-linejoin:round;stroke-opacity:1" />
  <g
     id="g61"
     style="fill:#272824;fill-opacity:0;stroke:#d0d2cd;stroke-width:50000;stroke-linecap:round;stroke-linejoin:round;stroke-opacity:1" />
  <g
     id="g63"
     style="fill:#272824;fill-opacity:0;stroke:#d0d2cd;stroke-width:50000;stroke-linecap:round;stroke-linejoin:round;stroke-opacity:1" />
  <g
     id="g65"
     style="fill:#272824;fill-opacity:0;stroke:#d0d2cd;stroke-width:50000;stroke-linecap:round;stroke-linejoin:round;stroke-opacity:1" />
  <g
     id="g67"
     style="fill:#272824;fill-opacity:0;stroke:#d0d2cd;stroke-width:50000;stroke-linecap:round;stroke-linejoin:round;stroke-opacity:1" />
  <g
     id="g69"
     style="fill:#272824;fill-opacity:0;stroke:#d0d2cd;stroke-width:50000;stroke-linecap:round;stroke-linejoin:round;stroke-opacity:1" />
  <g
     id="g71"
     style="fill:#272824;fill-opacity:0;stroke:#d0d2cd;stroke-width:50000;stroke-linecap:round;stroke-linejoin:round;stroke-opacity:1" />
  <g
     id="g73"
     style="fill:#272824;fill-opacity:0;stroke:#d0d2cd;stroke-width:50000;stroke-linecap:round;stroke-linejoin:round;stroke-opacity:1" />
  <g
     id="g75"
     style="fill:#272824;fill-opacity:0;stroke:#d0d2cd;stroke-width:50000;stroke-linecap:round;stroke-linejoin:round;stroke-opacity:1" />
  <g
     id="g77"
     style="fill:#272824;fill-opacity:0;stroke:#d0d2cd;stroke-width:50000;stroke-linecap:round;stroke-linejoin:round;stroke-opacity:1" />
  <g
     id="g79"
     style="fill:#272824;fill-opacity:0;stroke:#d0d2cd;stroke-width:50000;stroke-linecap:round;stroke-linejoin:round;stroke-opacity:1" />
  <g
     id="g81"
     style="fill:#272824;fill-opacity:0;stroke:#d0d2cd;stroke-width:50000;stroke-linecap:round;stroke-linejoin:round;stroke-opacity:1" />
  <g
     id="g83"
     style="fill:#272824;fill-opacity:0;stroke:#d0d2cd;stroke-width:50000;stroke-linecap:round;stroke-linejoin:round;stroke-opacity:1" />
  <g
     id="g85"
     style="fill:#272824;fill-opacity:0;stroke:#d0d2cd;stroke-width:50000;stroke-linecap:round;stroke-linejoin:round;stroke-opacity:1" />
  <g
     id="g87"
     style="fill:#272824;fill-opacity:0;stroke:#d0d2cd;stroke-width:50000;stroke-linecap:round;stroke-linejoin:round;stroke-opacity:1" />
  <g
     id="g89"
     style="fill:#272824;fill-opacity:0;stroke:#d0d2cd;stroke-width:50000;stroke-linecap:round;stroke-linejoin:round;stroke-opacity:1" />
  <g
     id="g91"
     style="fill:#272824;fill-opacity:0;stroke:#d0d2cd;stroke-width:50000;stroke-linecap:round;stroke-linejoin:round;stroke-opacity:1" />
  <g
     id="g93"
     style="fill:#272824;fill-opacity:0;stroke:#d0d2cd;stroke-width:50000;stroke-linecap:round;stroke-linejoin:round;stroke-opacity:1" />
  <g
     id="g95"
     style="fill:#272824;fill-opacity:0;stroke:#d0d2cd;stroke-width:50000;stroke-linecap:round;stroke-linejoin:round;stroke-opacity:1" />
  <g
     id="g97"
     style="fill:#272824;fill-opacity:0;stroke:#d0d2cd;stroke-width:50000;stroke-linecap:round;stroke-linejoin:round;stroke-opacity:1" />
  <g
     id="g99"
     style="fill:#272824;fill-opacity:0;stroke:#d0d2cd;stroke-width:50000;stroke-linecap:round;stroke-linejoin:round;stroke-opacity:1" />
</svg>
