<?xml version="1.0" encoding="UTF-8" standalone="no"?>
<svg
   version="1.1"
   stroke-linecap="round"
   stroke-linejoin="round"
   stroke-width="0"
   fill-rule="evenodd"
   width="107.49851mm"
   height="86.801147mm"
   viewBox="35743.055 -102041.57 107498.53 86801.147"
   id="ferris-sweep-compact-Edge_Cuts"
   sodipodi:docname="cuts.svg"
   inkscape:version="1.1.2 (0a00cf5339, 2022-02-04, custom)"
   xmlns:inkscape="http://www.inkscape.org/namespaces/inkscape"
   xmlns:sodipodi="http://sodipodi.sourceforge.net/DTD/sodipodi-0.dtd"
   xmlns="http://www.w3.org/2000/svg"
   xmlns:svg="http://www.w3.org/2000/svg">
  <defs
     id="defs9" />
  <sodipodi:namedview
     id="namedview7"
     pagecolor="#ffffff"
     bordercolor="#111111"
     borderopacity="1"
     inkscape:pageshadow="0"
     inkscape:pageopacity="0"
     inkscape:pagecheckerboard="1"
     inkscape:document-units="mm"
     showgrid="false"
     inkscape:lockguides="true"
     inkscape:zoom="4"
     inkscape:cx="140.125"
     inkscape:cy="249.5"
     inkscape:window-width="3440"
     inkscape:window-height="1413"
     inkscape:window-x="0"
     inkscape:window-y="0"
     inkscape:window-maximized="1"
     inkscape:current-layer="ferris-sweep-compact-Edge_Cuts"
     fit-margin-top="0"
     fit-margin-left="0"
     fit-margin-right="0"
     fit-margin-bottom="0" />
  <path
     style="stroke:#000000;stroke-width:264.583;stroke-miterlimit:4;stroke-dasharray:none;fill:none"
     d="m 35875.347,-81829.282 v 0"
     id="path1327" />
  <path
     style="fill:#000000;stroke:#000000;stroke-width:264.583;stroke-miterlimit:4;stroke-dasharray:none;fill-opacity:1"
     d="m 106652.66,-95630.125 21.93,1281.686 c 0,143.216 56.89,280.567 158.16,381.836 101.27,101.269 238.62,158.162 381.84,158.164 l 1162.69,-0.843 h 15130 c 230.74,0 452.03,91.66 615.18,254.817 163.16,163.157 254.82,384.445 254.82,615.183 l 30,11629.999 c 18.35,524.373 241.91,1020.564 622.53,1381.717 380.62,361.154 887.86,558.378 1412.47,549.201 l 15905,-2.917 c 198.91,0 389.68,79.018 530.33,219.67 140.65,140.652 219.67,331.418 219.67,530.33 l 12,36426 c -19.7,2542.202 -616.97,5046.673 -1746.7,7324.15 l -10507.3,18593.12 c -280.87,444.048 -727.76,757.233 -1241.01,869.712 -513.24,112.48 -1050.15,14.898 -1490.99,-270.982 -6725.75,-4025.64 -13968.66,-7116.084 -21528.87,-9186.055 -22548.53,-4931.792 -45559.576,-7439.641 -68641.118,-7480.826 -528.783,15.856 -1042.333,-178.308 -1428.358,-540.037 -386.026,-361.729 -613.118,-861.591 -631.623,-1390.288 l -17.964,-47542.794 c 0,-230.738 91.66,-452.026 254.817,-615.183 163.157,-163.157 384.445,-254.817 615.183,-254.817 h 15480 l 1162.689,0.843 c 143.217,0 280.568,-56.893 381.838,-158.162 101.269,-101.27 158.162,-238.621 158.162,-381.838 l -20.744,-11500.843 h 0 c 0,-230.738 91.66,-452.026 254.817,-615.183 163.157,-163.157 384.445,-254.817 615.183,-254.817 h 15480 l 1162.689,0.841 c 143.216,0 280.567,-56.894 381.837,-158.163 101.269,-101.268 158.163,-238.619 158.163,-381.835 l -2.689,-4890.841 c 0,-230.74 91.66,-452.03 254.817,-615.18 163.157,-163.16 384.445,-254.82 615.183,-254.82 h 15230 c 143.216,0 280.567,56.89 381.836,158.16 101.269,101.27 158.164,238.62 158.164,381.84 l 2.689,4329.998 c 0,143.216 56.895,280.567 158.164,381.836 101.269,101.269 238.62,158.164 381.836,158.164 l 1162.689,-0.843 h 15479.99 c 230.74,0 452.03,91.66 615.18,254.817 163.16,163.157 254.82,384.445 254.82,615.183 v 0"
     id="path1313"
     sodipodi:nodetypes="ccscccsccsccsccccscccsccscccsccsscccsccsccsccscccssc" />
</svg>
